<svg xmlns="http://www.w3.org/2000/svg" width="100" height="100" fill="none"><circle cx="50" cy="50" r="49" fill="url(#a)" stroke="#A0007C" stroke-width="2"/><path fill="#fff" d="M49.15 76.022c-2.1 0-3.808-1.68-3.808-3.747V70.42h-3.696c-2.1 0-3.809-1.682-3.809-3.75 0-2.067 1.708-3.748 3.809-3.748h3.696v-5.149c-7.864-1.73-13.624-8.62-13.624-16.688 0-14.016 16.274-21.983 27.673-13.83a.879.879 0 0 1-1.023 1.43c-10.212-7.304-24.893-.226-24.893 12.4 0 7.517 5.566 13.812 12.898 15.1a.88.88 0 0 1 .727.866v6.75a.879.879 0 0 1-.88.88h-4.574c-1.131 0-2.051.892-2.051 1.989 0 1.098.92 1.992 2.05 1.992h4.576a.88.88 0 0 1 .879.879v2.733c0 1.097.92 1.99 2.05 1.99s2.049-.893 2.049-1.99v-2.733c0-.485.393-.879.879-.879h4.577c1.13 0 2.048-.894 2.048-1.992 0-1.097-.918-1.99-2.048-1.99h-4.577a.879.879 0 0 1-.88-.879v-6.75a.88.88 0 0 1 .727-.865 15.666 15.666 0 0 0 6.437-2.698.88.88 0 0 1 1.02 1.431 17.389 17.389 0 0 1-6.425 2.855v5.148h3.698c2.099 0 3.806 1.681 3.806 3.748 0 2.068-1.707 3.75-3.806 3.75h-3.698v1.854c0 2.066-1.708 3.747-3.807 3.747ZM37.575 41.086c0-8.098 8.326-13.445 15.77-10.586a.879.879 0 0 1-.63 1.64c-6.3-2.419-13.383 2.091-13.383 8.946 0 6.87 7.094 11.364 13.382 8.949a.879.879 0 1 1 .63 1.64c-7.446 2.86-15.77-2.487-15.77-10.588Z"/><path fill="#fff" d="M62.487 50.883c-5.401 0-9.796-4.394-9.796-9.795s4.395-9.796 9.796-9.796 9.795 4.395 9.795 9.796c0 5.4-4.394 9.795-9.795 9.795Zm0-17.833c-4.432 0-8.038 3.606-8.038 8.038 0 4.431 3.606 8.037 8.038 8.037s8.038-3.605 8.038-8.037-3.606-8.038-8.038-8.038Z"/><path fill="#fff" d="M60.228 45.49a.879.879 0 0 1-.88-.878v-7.049a.879.879 0 0 1 1.759 0v7.049a.879.879 0 0 1-.88.879Zm4.518 0a.879.879 0 0 1-.879-.878v-7.049a.879.879 0 0 1 1.758 0v7.049a.879.879 0 0 1-.879.879Z"/><defs><linearGradient id="a" x1="100" x2="4.959" y1="60.744" y2="27.686" gradientUnits="userSpaceOnUse"><stop stop-color="#AF278D"/><stop offset="1" stop-color="#D48EBB"/></linearGradient></defs></svg>