<svg width="100" height="100" viewBox="0 0 100 100" fill="none" xmlns="http://www.w3.org/2000/svg">
<circle cx="50" cy="50" r="49" fill="url(#paint0_linear_215_30)" stroke="#A0007C" stroke-width="2"/>
<path d="M53.8979 23.2127L51.6854 22.6596L50.4973 20.7447C50.2719 20.3791 49.7344 20.3744 49.5012 20.7447L48.3151 22.6596L46.1028 23.2127C45.6791 23.3222 45.5183 23.835 45.8028 24.1643L47.2723 25.8658L47.0966 28.151C47.0616 28.5951 47.5093 28.9038 47.9075 28.7346L50.0007 27.8486L52.0913 28.7346C52.4792 28.9038 52.9407 28.6029 52.9046 28.151L52.7288 25.8658L54.1986 24.1643C54.4899 23.8258 54.3069 23.3163 53.8979 23.2127ZM51.6807 25.2846C51.5776 25.4041 51.5284 25.5564 51.5398 25.7135L51.6619 27.2791L50.2299 26.6721C50.0834 26.6107 49.9222 26.6088 49.7705 26.6721L48.3387 27.2791L48.4606 25.7135C48.4723 25.5564 48.4208 25.4041 48.3176 25.2846L47.3098 24.1197L48.8286 23.7377C48.9762 23.7002 49.1028 23.6088 49.1848 23.4799L50.0005 22.165L50.8159 23.4799C50.8955 23.6088 51.0221 23.7002 51.1723 23.7377L52.6887 24.1197L51.6807 25.2846Z" fill="white"/>
<path d="M53.8979 73.9618L51.6854 73.4087L50.4973 71.4938C50.2716 71.128 49.7344 71.1235 49.5012 71.4938L48.3151 73.4087L46.1028 73.9618C45.6767 74.0722 45.519 74.585 45.8028 74.9134L47.2723 76.6149L47.0966 78.9001C47.0619 79.34 47.503 79.6534 47.9075 79.4837L50.0007 78.5954L52.0913 79.4837C52.49 79.6531 52.9405 79.3442 52.9046 78.9001L52.7288 76.6149L54.1986 74.9134C54.4857 74.5796 54.3151 74.0649 53.8979 73.9618ZM51.6807 76.0337C51.5776 76.1509 51.5283 76.3032 51.5398 76.4626L51.6619 78.0282L50.2299 77.4212C50.0703 77.356 49.9133 77.3612 49.7705 77.4212L48.3387 78.0282L48.4606 76.4626C48.4723 76.3032 48.4208 76.1509 48.3176 76.0337L47.3098 74.8665L48.8309 74.4868C48.9786 74.4493 49.1028 74.3579 49.1848 74.2267L50.0005 72.9142L50.8158 74.2267C50.8955 74.3579 51.0221 74.4493 51.1723 74.4868L52.6887 74.8665L51.6807 76.0337Z" fill="white"/>
<path d="M66.5028 26.7485L64.2912 26.1938L63.1032 24.2796C62.8742 23.9105 62.3363 23.9109 62.1076 24.2796L60.9198 26.1938L58.7079 26.7485C58.2856 26.8545 58.122 27.3701 58.4072 27.7001L59.8775 29.4009L59.7005 31.6859C59.6665 32.1251 60.1114 32.442 60.5136 32.2706L62.6054 31.383L64.6972 32.2706C65.0982 32.4413 65.5442 32.1265 65.5102 31.6861L65.3335 29.4012L66.8035 27.7003C67.0883 27.3705 66.9259 26.8545 66.5028 26.7485ZM64.287 28.8192C64.1848 28.9373 64.1342 29.0918 64.1462 29.2477L64.2676 30.8149L62.8344 30.207C62.6876 30.1448 62.5233 30.1448 62.3766 30.207L60.9437 30.8149L61.0651 29.2477C61.0773 29.0916 61.0264 28.9373 60.9242 28.8192L59.9164 27.6534L61.4349 27.2726C61.5826 27.2355 61.7098 27.1425 61.7902 27.0134L62.6056 25.6997L63.421 27.0134C63.5014 27.1427 63.6287 27.2358 63.7763 27.2726L65.2948 27.6534L64.287 28.8192Z" fill="white"/>
<path d="M76.3039 36.333L74.0938 35.7776L72.9055 33.8627C72.6699 33.4938 72.1384 33.4962 71.9094 33.8627L70.7213 35.7776L68.5088 36.333C68.0869 36.4373 67.9208 36.9506 68.2088 37.2846L69.6786 38.9838L69.5028 41.269C69.4674 41.7131 69.9139 42.0237 70.3161 41.8549L72.4067 40.9666L74.4973 41.8549C74.9225 42.0272 75.3444 41.6967 75.3109 41.269L75.1351 38.9862L76.6046 37.2846C76.8915 36.952 76.7272 36.4376 76.3039 36.333ZM74.0893 38.4026C73.9862 38.5221 73.9346 38.6744 73.9463 38.8315L74.0682 40.3994L72.6364 39.7924C72.4887 39.7291 72.3223 39.7291 72.1794 39.7924L70.745 40.3994L70.8671 38.8315C70.8788 38.6744 70.827 38.5221 70.7263 38.4026L69.7184 37.2377L71.237 36.858C71.3848 36.8205 71.5114 36.7268 71.5911 36.5979L72.4065 35.283L73.2221 36.5979C73.3018 36.7268 73.4284 36.8182 73.5784 36.858L75.0948 37.2377L74.0893 38.4026Z" fill="white"/>
<path d="M78.9781 49.097L76.768 48.5415L75.5797 46.6267C75.3465 46.2566 74.8093 46.2606 74.5836 46.6267L73.3953 48.5415L71.183 49.097C70.7609 49.2013 70.5976 49.7176 70.883 50.0485L72.3528 51.7478L72.177 54.0329C72.1433 54.4557 72.5654 54.7911 72.9903 54.6189L75.0809 53.7306L77.1739 54.6189C77.5641 54.7846 78.0179 54.4841 77.9874 54.0329L77.8091 51.7478L79.2809 50.0485C79.568 49.711 79.3953 49.1963 78.9781 49.097ZM76.7633 51.1665C76.6604 51.286 76.6088 51.4384 76.6205 51.5954L76.7424 53.1634L75.3106 52.554C75.1627 52.4931 74.9963 52.4931 74.8536 52.554L73.4192 53.1634L73.5411 51.5954C73.553 51.4407 73.5012 51.2837 73.4005 51.1665L72.3926 50.0017L73.9112 49.6196C74.0588 49.5821 74.1854 49.4907 74.2653 49.3618L75.0807 48.047L75.8963 49.3618C75.976 49.4907 76.1026 49.5821 76.2526 49.6196L77.769 50.0017L76.7633 51.1665Z" fill="white"/>
<path d="M76.2453 61.4862L74.033 60.9331L72.8448 59.0183C72.6181 58.6508 72.0784 58.6496 71.851 59.0183L70.6604 60.9331L68.4502 61.4862C68.0206 61.5975 67.8652 62.1134 68.1502 62.4378L69.62 64.1393L69.4419 66.4245C69.4112 66.87 69.8574 67.1771 70.2551 67.0081L72.3481 66.1198L74.4387 67.0081C74.8651 67.1811 75.2855 66.848 75.2523 66.4245L75.0765 64.1393L76.546 62.4378C76.8338 62.104 76.6623 61.5917 76.2453 61.4862ZM74.0281 63.5581C73.9252 63.6776 73.876 63.83 73.8875 63.9847L74.0094 65.5526L72.575 64.9456C72.4339 64.8842 72.2698 64.8816 72.1182 64.9456L70.6862 65.5526L70.8083 63.9847C70.82 63.83 70.7682 63.6776 70.6653 63.5581L69.6575 62.3933L71.176 62.0112C71.3262 61.9737 71.4502 61.8823 71.5325 61.7511L72.3479 60.4386L73.1635 61.7511C73.2432 61.8823 73.3698 61.9737 73.5174 62.0112L75.0359 62.3909L74.0281 63.5581Z" fill="white"/>
<path d="M66.6596 71.2879L64.4492 70.7324L63.2612 68.8199C63.0317 68.448 62.4896 68.4559 62.2651 68.8199L61.0768 70.7324L58.8666 71.2879C58.4384 71.3936 58.2823 71.9132 58.5643 72.2395L60.0359 73.941L59.8578 76.2262C59.8236 76.6549 60.2588 76.9827 60.6713 76.8098L62.7643 75.9215L64.8549 76.8098C65.2494 76.9776 65.7041 76.6722 65.6682 76.2262L65.4924 73.941L66.9622 72.2395C67.2437 71.913 67.0878 71.3938 66.6596 71.2879ZM64.4448 73.3598C64.3416 73.477 64.2924 73.6293 64.3041 73.7887L64.426 75.3543L62.9916 74.7473C62.8407 74.684 62.6823 74.6854 62.5346 74.7473L61.1028 75.3543L61.2223 73.7887C61.234 73.6317 61.1825 73.477 61.0817 73.3598L60.0737 72.1926L61.5924 71.8129C61.7401 71.7754 61.8666 71.684 61.9487 71.5527L62.7643 70.2402L63.5797 71.5527C63.6596 71.6816 63.7859 71.7754 63.9338 71.8129L65.4523 72.1926L64.4448 73.3598Z" fill="white"/>
<path d="M41.2908 26.7494L39.0807 26.1939L37.8924 24.279C37.6655 23.9111 37.1227 23.912 36.8963 24.279L35.708 26.1939L33.4979 26.7494C33.0741 26.8541 32.9112 27.3669 33.1955 27.7009L34.6674 29.4001L34.4891 31.6853C34.4546 32.1224 34.8983 32.4381 35.3026 32.2712L37.3955 31.383L39.4862 32.2712C39.9097 32.443 40.3332 32.11 40.2994 31.6853L40.1237 29.4001L41.5934 27.7009C41.8742 27.3744 41.7207 26.8555 41.2908 26.7494ZM39.0758 28.8189C38.9729 28.9384 38.9237 29.0908 38.9351 29.2478L39.057 30.8158L37.6226 30.2064C37.4773 30.1455 37.3109 30.1455 37.1659 30.2064L35.7338 30.8158L35.8534 29.2478C35.8651 29.0908 35.8159 28.9384 35.7127 28.8189L34.7049 27.654L36.2234 27.272C36.3734 27.2345 36.4976 27.1431 36.5799 27.0142L37.3953 25.6994L38.2109 27.0142C38.2906 27.1431 38.4172 27.2345 38.5648 27.272L40.0834 27.654L39.0758 28.8189Z" fill="white"/>
<path d="M25.501 41.855L27.594 40.9667L29.6846 41.855C30.1119 42.0282 30.5314 41.6923 30.4981 41.2691L30.3223 38.9862L31.7919 37.2847C32.0834 36.9423 31.9027 36.4358 31.4921 36.3331L29.2796 35.7776L28.0913 33.8628C27.8623 33.4965 27.331 33.4934 27.0952 33.8628L25.9072 35.7776L23.6968 36.3331C23.2763 36.4369 23.1071 36.9547 23.397 37.2847L24.8666 38.9862L24.6884 41.2691C24.6526 41.709 25.1007 42.0252 25.501 41.855ZM26.4219 36.8581C26.5698 36.8206 26.6961 36.7269 26.7784 36.598L27.5938 35.2831L28.4094 36.598C28.4891 36.7269 28.6156 36.8206 28.7633 36.8581L30.282 37.2378L29.274 38.4027C29.1711 38.5222 29.1219 38.6745 29.1334 38.8316L29.2555 40.3995L27.8211 39.7902C27.6758 39.7292 27.5094 39.7292 27.3641 39.7902L25.932 40.3995L26.0516 38.8316C26.0635 38.6745 26.0143 38.5222 25.9109 38.4027L24.9031 37.2378L26.4219 36.8581Z" fill="white"/>
<path d="M22.1914 51.7477L22.0133 54.0328C21.9781 54.4741 22.4309 54.7868 22.8266 54.6188L24.9198 53.7305L27.0104 54.6188C27.4344 54.7913 27.8574 54.4552 27.8237 54.0328L27.6479 51.7477L29.1174 50.0461C29.3973 49.7215 29.2449 49.2026 28.8177 49.0969L26.6052 48.5414L25.4169 46.6266C25.1884 46.2553 24.6458 46.2619 24.4208 46.6266L23.2327 48.5414L21.0223 49.0969C20.5955 49.2023 20.4357 49.7248 20.7226 50.0461L22.1914 51.7477ZM23.7479 49.6195C23.8979 49.582 24.0221 49.4906 24.1041 49.3617L24.9198 48.0469L25.7352 49.3617C25.8148 49.4906 25.9414 49.582 26.0891 49.6195L27.6078 50.0016L26.6 51.1664C26.4969 51.2859 26.4477 51.4383 26.4591 51.5953L26.5812 53.1633L25.1469 52.5539C24.9943 52.4902 24.8359 52.4925 24.6898 52.5539L23.2578 53.1633L23.3776 51.5953C23.3916 51.4383 23.3401 51.2859 23.2367 51.1664L22.2289 50.0016L23.7479 49.6195Z" fill="white"/>
<path d="M31.5502 61.4862L29.3398 60.9331L28.1492 59.0183C27.9219 58.6493 27.3816 58.651 27.1557 59.0183L25.9651 60.9331L23.7547 61.4862C23.3291 61.5966 23.1711 62.1092 23.4549 62.4378L24.9245 64.1394L24.7463 66.4245C24.7154 66.8743 25.168 67.1764 25.5596 67.0081L27.6526 66.1198L29.7432 67.0081C30.1648 67.179 30.5905 66.8544 30.5567 66.4245L30.3809 64.1394L31.8505 62.4378C32.1352 62.1078 31.9773 61.5969 31.5502 61.4862ZM29.3354 63.5581C29.2323 63.6753 29.1807 63.8276 29.1924 63.987L29.3145 65.5526L27.8825 64.9456C27.7348 64.8823 27.5684 64.8823 27.4231 64.9456L25.9911 65.5526L26.1132 63.987C26.1249 63.83 26.0734 63.6776 25.9702 63.5581L24.9624 62.3909L26.4809 62.0112C26.6312 61.9737 26.7552 61.8823 26.8374 61.7511L27.6528 60.4386L28.4684 61.7511C28.5481 61.8823 28.6747 61.9737 28.8223 62.0112L30.3411 62.3909L29.3354 63.5581Z" fill="white"/>
<path d="M41.1338 71.2877L38.9213 70.7322L37.7354 68.8197C37.5022 68.4497 36.9645 68.4544 36.7393 68.8197L35.551 70.7322L33.3388 71.2877C32.9143 71.3937 32.7561 71.9123 33.0388 72.2393L34.5083 73.9408L34.3325 76.226C34.2978 76.6598 34.7384 76.9807 35.146 76.8096L37.2366 75.9213L39.3296 76.8096C39.7445 76.9837 40.1771 76.6507 40.1429 76.226L39.9648 73.9385L41.4345 72.2393C41.7235 71.9098 41.5548 71.3918 41.1338 71.2877ZM38.919 73.3596C38.8161 73.4768 38.7643 73.6315 38.7784 73.7862L38.8979 75.3541L37.4659 74.7471C37.3332 74.6871 37.1541 74.6815 37.0088 74.7471L35.5747 75.3541L35.6966 73.7862C35.7083 73.6315 35.6567 73.4768 35.5559 73.3596L34.5479 72.1924L36.0666 71.8127C36.2143 71.7752 36.3409 71.6838 36.4206 71.5526L37.2362 70.2401L38.0516 71.5526C38.1338 71.6838 38.2578 71.7752 38.4081 71.8127L39.9266 72.1924L38.919 73.3596Z" fill="white"/>
<defs>
<linearGradient id="paint0_linear_215_30" x1="100" y1="60.7438" x2="4.95867" y2="27.686" gradientUnits="userSpaceOnUse">
<stop stop-color="#AF278D"/>
<stop offset="1" stop-color="#D48EBB"/>
</linearGradient>
</defs>
</svg>
