<svg width="100" height="100" viewBox="0 0 100 100" fill="none" xmlns="http://www.w3.org/2000/svg">
<circle cx="50" cy="50" r="49" fill="url(#paint0_linear_215_22)" stroke="#A0007C" stroke-width="2"/>
<path d="M72.7251 26.6686C71.1171 24.9478 68.9349 24 66.5805 24H33.4185C28.6096 24 24.7 28.1917 25.0255 32.9877L26.4931 54.616C26.5569 55.5581 28.0185 55.4594 27.9546 54.5168L26.487 32.8886C26.2181 28.9267 29.4474 25.4648 33.4185 25.4648H66.5805C70.5516 25.4648 73.7808 28.9267 73.5119 32.8886L71.2615 66.0536C71.0149 69.6881 67.9702 72.5352 64.3301 72.5352H35.6689C32.0287 72.5352 28.9841 69.6881 28.7374 66.0535L28.2263 58.5207C28.1622 57.5784 26.7009 57.6774 26.7647 58.6199L27.2759 66.1527C27.5745 70.5531 31.2611 74 35.6688 74H64.33C68.7378 74 72.4244 70.5531 72.7229 66.1527L74.9733 32.9877C75.1331 30.6351 74.3346 28.3909 72.7251 26.6686Z" fill="white"/>
<path d="M57.3724 41.041C57.3724 41.4455 57.7004 41.7734 58.1049 41.7734H61.0345C61.439 41.7734 61.767 41.4455 61.767 41.041C61.767 34.5523 56.4881 29.2734 49.9994 29.2734C43.5107 29.2734 38.2318 34.5523 38.2318 41.041C38.2318 41.4455 38.5597 41.7734 38.9642 41.7734H54.101C55.0456 41.7734 55.0456 40.3086 54.101 40.3086H50.5534L47.3667 34.628C46.9046 33.8042 45.627 34.5209 46.0891 35.3447L48.8738 40.3086H39.7224C39.881 38.0605 40.7642 36.0094 42.1391 34.3876L43.1444 35.3928C43.8122 36.0608 44.8482 35.0249 44.1802 34.357L43.1631 33.3398C44.1381 32.4733 45.2782 31.7891 46.5296 31.3401L46.8952 32.7045C47.1388 33.6138 48.5548 33.2383 48.3101 32.3253L47.9404 30.9456C49.225 30.684 50.5586 30.6705 51.8483 30.9052L51.4875 32.2517C51.2429 33.1646 52.6588 33.5401 52.9024 32.6309L53.2671 31.2701C54.5227 31.6911 55.6713 32.3474 56.6598 33.187L55.691 34.1559C55.023 34.8237 56.0589 35.8596 56.7267 35.1916L57.7068 34.2115C59.1689 35.8598 60.1119 37.9784 60.2763 40.3086H58.1049C57.7004 40.3086 57.3724 40.6365 57.3724 41.041Z" fill="white"/>
<path d="M32.3724 28.6875C30.9455 28.6875 29.7845 29.8484 29.7845 31.2754C29.7845 32.7023 30.9455 33.8633 32.3724 33.8633C33.7994 33.8633 34.9603 32.7023 34.9603 31.2754C34.9603 29.8484 33.7995 28.6875 32.3724 28.6875ZM32.3724 32.3984C31.7532 32.3984 31.2494 31.8946 31.2494 31.2754C31.2494 30.6562 31.7532 30.1523 32.3724 30.1523C32.9917 30.1523 33.4955 30.6562 33.4955 31.2754C33.4955 31.8946 32.9918 32.3984 32.3724 32.3984Z" fill="white"/>
<path d="M67.6263 33.8633C69.0533 33.8633 70.2142 32.7023 70.2142 31.2754C70.2142 29.8484 69.0534 28.6875 67.6263 28.6875C66.1993 28.6875 65.0385 29.8484 65.0385 31.2754C65.0385 32.7023 66.1994 33.8633 67.6263 33.8633ZM67.6263 30.1523C68.2456 30.1523 68.7494 30.6562 68.7494 31.2754C68.7494 31.8946 68.2456 32.3984 67.6263 32.3984C67.0071 32.3984 66.5033 31.8946 66.5033 31.2754C66.5033 30.6562 67.0071 30.1523 67.6263 30.1523Z" fill="white"/>
<path d="M32.0306 66.334C32.0306 67.7609 33.1916 68.9219 34.6185 68.9219C36.0455 68.9219 37.2064 67.7609 37.2064 66.334C37.2064 64.907 36.0455 63.7461 34.6185 63.7461C33.1916 63.7461 32.0306 64.907 32.0306 66.334ZM34.6185 65.2109C35.2378 65.2109 35.7416 65.7147 35.7416 66.334C35.7416 66.9532 35.2378 67.457 34.6185 67.457C33.9993 67.457 33.4955 66.9532 33.4955 66.334C33.4955 65.7147 33.9993 65.2109 34.6185 65.2109Z" fill="white"/>
<path d="M62.7924 66.334C62.7924 67.7609 63.9533 68.9219 65.3802 68.9219C66.8072 68.9219 67.9681 67.7609 67.9681 66.334C67.9681 64.907 66.8072 63.7461 65.3802 63.7461C63.9533 63.7461 62.7924 64.907 62.7924 66.334ZM65.3802 65.2109C65.9995 65.2109 66.5033 65.7147 66.5033 66.334C66.5033 66.9532 65.9995 67.457 65.3802 67.457C64.761 67.457 64.2572 66.9532 64.2572 66.334C64.2572 65.7147 64.761 65.2109 65.3802 65.2109Z" fill="white"/>
<defs>
<linearGradient id="paint0_linear_215_22" x1="100" y1="60.7438" x2="4.95867" y2="27.686" gradientUnits="userSpaceOnUse">
<stop stop-color="#AF278D"/>
<stop offset="1" stop-color="#D48EBB"/>
</linearGradient>
</defs>
</svg>
