<svg width="100" height="100" viewBox="0 0 100 100" fill="none" xmlns="http://www.w3.org/2000/svg">
<circle cx="50" cy="50" r="49" fill="url(#paint0_linear_215_24)" stroke="#A0007C" stroke-width="2"/>
<path d="M71.0061 56.8282C70.5857 56.5854 70.0482 56.7294 69.8055 57.1499L64.4159 66.485C63.7395 66.1928 62.9946 66.0301 62.2121 66.0301C59.1376 66.0301 56.6362 68.5313 56.6362 71.606C56.6362 74.6805 59.1376 77.1819 62.2121 77.1819C65.2866 77.1819 67.788 74.6805 67.788 71.606C67.788 69.9447 67.0569 68.4518 65.9005 67.4294L71.3279 58.0289C71.5706 57.6084 71.4266 57.0709 71.0061 56.8282ZM62.212 75.424C60.1067 75.424 58.3939 73.7112 58.3939 71.6059C58.3939 69.5006 60.1067 67.7878 62.212 67.7878C64.3173 67.7878 66.0301 69.5005 66.0301 71.6059C66.0302 73.7112 64.3174 75.424 62.212 75.424Z" fill="white"/>
<path d="M53.7575 70.727H43.2938C42.871 68.0686 40.5634 66.03 37.7879 66.03C34.7134 66.03 32.212 68.5313 32.212 71.6059C32.212 74.6805 34.7134 77.1818 37.7879 77.1818C40.5634 77.1818 42.871 75.1432 43.2938 72.4848H53.7575C54.2429 72.4848 54.6364 72.0913 54.6364 71.6059C54.6364 71.1205 54.243 70.727 53.7575 70.727ZM37.788 75.424C35.6827 75.424 33.9699 73.7112 33.9699 71.6059C33.9699 69.5007 35.6827 67.7878 37.788 67.7878C39.8933 67.7878 41.6061 69.5005 41.6061 71.6059C41.606 73.7112 39.8932 75.424 37.788 75.424Z" fill="white"/>
<path d="M32.5153 64.6853C32.678 64.9673 32.9735 65.1249 33.2772 65.1249C33.4263 65.1249 33.5775 65.0869 33.7159 65.007C34.1362 64.7643 34.2802 64.2268 34.0375 63.8064L28.7223 54.6002C30.1879 53.5945 31.1517 51.9079 31.1517 50C31.1517 46.9254 28.6503 44.4241 25.5758 44.4241C22.5013 44.4241 20 46.9254 20 50C20 53.0745 22.5014 55.5759 25.5759 55.5759C26.1145 55.5759 26.6349 55.4976 27.128 55.3544L32.5153 64.6853ZM21.7578 50C21.7578 47.8947 23.4706 46.1819 25.5759 46.1819C27.6812 46.1819 29.3939 47.8947 29.3939 50C29.3939 52.1052 27.6811 53.8181 25.5758 53.8181C23.4705 53.8181 21.7578 52.1052 21.7578 50Z" fill="white"/>
<path d="M28.9989 43.163C29.1373 43.243 29.2885 43.2809 29.4376 43.2809C29.7413 43.2809 30.0368 43.1233 30.1995 42.8414L35.5842 33.515C36.2606 33.8073 37.0056 33.9699 37.788 33.9699C40.8625 33.9699 43.3639 31.4687 43.3639 28.394C43.3639 25.3194 40.8625 22.8181 37.788 22.8181C34.7135 22.8181 32.2121 25.3195 32.2121 28.394C32.2121 30.0553 32.9432 31.5482 34.0997 32.5706L28.6773 41.9624C28.4345 42.3828 28.5785 42.9203 28.9989 43.163ZM37.788 24.5759C39.8933 24.5759 41.6061 26.2887 41.6061 28.394C41.6061 30.4993 39.8933 32.2121 37.788 32.2121C35.6827 32.2121 33.9699 30.4994 33.9699 28.394C33.9699 26.2886 35.6826 24.5759 37.788 24.5759Z" fill="white"/>
<path d="M46.2425 29.2729H56.7062C57.129 31.9313 59.4366 33.9699 62.2121 33.9699C65.2866 33.9699 67.788 31.4687 67.788 28.394C67.788 25.3194 65.2866 22.8181 62.2121 22.8181C59.4366 22.8181 57.129 24.8567 56.7062 27.5151H46.2425C45.7571 27.5151 45.3636 27.9086 45.3636 28.394C45.3636 28.8794 45.757 29.2729 46.2425 29.2729ZM62.212 24.5759C64.3173 24.5759 66.0301 26.2887 66.0301 28.394C66.0301 30.4993 64.3173 32.2121 62.212 32.2121C60.1067 32.2121 58.3939 30.4994 58.3939 28.394C58.3939 26.2886 60.1068 24.5759 62.212 24.5759Z" fill="white"/>
<path d="M74.4241 44.424C73.8854 44.424 73.365 44.5023 72.8718 44.6455L67.5061 35.3515C67.2634 34.931 66.7257 34.7871 66.3055 35.0298C65.8851 35.2725 65.7411 35.81 65.9838 36.2304L71.2777 45.3998C69.8121 46.4055 68.8483 48.0921 68.8483 49.9999C68.8483 53.0744 71.3497 55.5758 74.4242 55.5758C77.4987 55.5758 80 53.0744 80 49.9999C80 46.9254 77.4986 44.424 74.4241 44.424ZM74.4241 53.818C72.3188 53.818 70.606 52.1053 70.606 49.9999C70.606 47.8945 72.3188 46.1818 74.4241 46.1818C76.5294 46.1818 78.2422 47.8946 78.2422 49.9999C78.2422 52.1052 76.5294 53.818 74.4241 53.818Z" fill="white"/>
<defs>
<linearGradient id="paint0_linear_215_24" x1="100" y1="60.7438" x2="4.95867" y2="27.686" gradientUnits="userSpaceOnUse">
<stop stop-color="#AF278D"/>
<stop offset="1" stop-color="#D48EBB"/>
</linearGradient>
</defs>
</svg>
