<svg width="100" height="100" viewBox="0 0 100 100" fill="none" xmlns="http://www.w3.org/2000/svg">
<circle cx="50" cy="50" r="49" fill="url(#paint0_linear_215_26)" stroke="#A0007C" stroke-width="2"/>
<g clip-path="url(#clip0_215_26)">
<path d="M77.2929 37.8776C76.6568 37.2266 75.6507 37.0018 74.7923 37.2986L63.7164 26.1603C63.9786 25.3179 63.7821 24.3669 63.1224 23.7071C62.1713 22.7561 60.614 22.7655 59.6512 23.7284C58.6131 24.7666 57.8135 26.0716 57.2745 27.6071C56.915 28.5877 58.4624 29.1327 58.7951 28.1405C59.2532 26.8349 59.9248 25.7338 60.7907 24.8678C61.5665 24.0705 62.7601 25.2618 61.9616 26.0388C59.2024 28.798 59.4466 34.1612 60.2865 38.5957C59.51 38.4017 59.0886 38.2682 58.4605 38.099C58.06 35.7079 57.9362 33.5324 58.0928 31.6261C58.1294 31.1826 57.7994 30.7935 57.3559 30.7571C56.9142 30.7209 56.5234 31.0505 56.4869 31.4941C56.3336 33.3578 56.4294 35.4481 56.7697 37.7206C55.9332 37.5659 55.0977 37.4597 54.2734 37.4059C49.2882 37.083 44.8177 38.6293 41.6859 41.7611C38.5535 44.8936 37.0074 49.3645 37.3321 54.3481C37.3796 55.1653 37.4816 55.9849 37.6372 56.8212C32.7633 56.0827 27.1404 56.2391 23.7283 59.651C22.7655 60.6139 22.7559 62.171 23.707 63.1222C24.2819 63.706 25.1454 63.952 25.9454 63.7744L32.1895 70.0186C32.5043 70.3331 33.0142 70.3331 33.329 70.0186C33.6436 69.7038 33.6436 69.1937 33.329 68.8791L27.3726 62.9227C28.2953 62.1138 29.642 61.6615 31.2255 61.4767L39.5381 69.7521C39.3648 71.2818 38.9285 72.661 38.0774 73.6273L35.9877 71.5376C35.6729 71.223 35.1628 71.223 34.8482 71.5376C34.5335 71.8523 34.5335 72.3624 34.8482 72.677L37.2255 75.0544C37.048 75.855 37.2941 76.7181 37.8774 77.2926C38.3492 77.7643 38.9698 77.9996 39.5933 77.9996C40.2269 77.9996 40.8634 77.7564 41.3489 77.2711C41.3489 77.2711 41.3489 77.2711 41.349 77.271C43.0499 75.57 44.0835 73.1761 44.4213 70.1559C44.6451 68.153 44.5639 65.8723 44.1812 63.3632C44.9679 63.5094 45.7478 63.6091 46.5146 63.6589C47.2509 63.7106 47.9967 63.7238 48.7157 63.6945C49.1604 63.6764 49.5062 63.3014 49.4881 62.8568C49.47 62.4122 49.0902 62.0685 48.6504 62.0844C47.9877 62.112 47.2989 62.0989 46.6193 62.0509C45.4588 61.9755 44.2626 61.7765 43.0554 61.461C42.579 61.3393 42.1113 61.1901 41.6338 61.0631C40.0015 60.6189 37.4515 60.0307 34.7968 59.8298C30.7095 59.5205 27.7627 60.2376 26.0387 61.9616C25.7262 62.2883 25.1618 62.3099 24.8465 61.9828C24.5236 61.66 24.5331 61.1252 24.8678 60.7906C28.0775 57.5809 33.7708 57.7203 38.4968 58.5938C41.2854 59.0389 44.1331 60.2551 46.9239 60.3773C50.9376 60.6382 54.4913 59.4402 56.9281 57.0037C59.3649 54.5673 60.5632 51.0146 60.3025 47.0001C60.2282 45.8581 60.0381 44.6953 59.7374 43.5356C60.3603 43.685 60.9754 43.819 61.5786 43.9366C61.7861 44.9054 61.9231 45.8766 61.9851 46.8309C62.2784 51.3471 60.8983 55.3756 58.099 58.1747C56.4907 59.7828 54.5023 60.9179 52.1889 61.5483C51.7596 61.6654 51.5064 62.1082 51.6234 62.5376C51.7391 62.9706 52.1949 63.2204 52.6127 63.1031C55.2 62.3979 57.4292 61.123 59.2382 59.3142C62.3702 56.1825 63.9168 51.712 63.593 46.7264C63.5395 45.9017 63.4337 45.0662 63.2796 44.2304C65.8025 44.6084 68.0966 44.6838 70.1123 44.4532C73.15 44.1059 75.5586 43.0614 77.2712 41.3489C78.2344 40.386 78.2439 38.8288 77.2929 37.8776ZM40.2097 76.1319C39.8749 76.4664 39.3399 76.4763 39.0171 76.1533C38.6903 75.8384 38.7118 75.2733 39.0387 74.9609C41.773 72.2265 41.511 66.8903 40.6577 62.4719C41.2847 62.6289 41.8702 62.8087 42.487 62.9785C43.2295 67.335 43.3721 72.9693 40.2097 76.1319ZM38.9305 62.064C39.2601 63.6222 39.5836 65.613 39.6267 67.5666L33.4123 61.38C35.1619 61.4108 37.0633 61.6683 38.9305 62.064ZM62.7972 27.5212L73.4452 38.2293C72.4364 39.0282 71.0436 39.4331 69.5169 39.5889L61.4115 31.482C61.5692 29.939 61.9811 28.5323 62.7972 27.5212ZM62.0081 38.9913C61.6961 37.486 61.3928 35.5795 61.3402 33.6899L67.3093 39.66C65.4197 39.6071 63.5133 39.3035 62.0081 38.9913ZM44.6617 45.7252L46.007 47.0705C46.3217 47.3851 46.8317 47.3851 47.1464 47.0705C47.4611 46.7558 47.4611 46.2457 47.1464 45.9311L45.8145 44.5991C46.8164 43.7806 47.9974 43.1684 49.3108 42.7782L58.222 51.6895C57.8319 53.003 57.2197 54.184 56.4013 55.1859L49.8051 48.5897C49.4904 48.2752 48.9803 48.2752 48.6657 48.5897C48.351 48.9045 48.351 49.4146 48.6657 49.7292L55.275 56.3386C54.2965 57.1767 53.1376 57.8108 51.8446 58.2253L42.7747 49.1555C43.1893 47.8625 43.8234 46.7037 44.6617 45.7252ZM57.9343 43.0658C58.6037 45.2643 58.9067 47.58 58.6164 49.8048L51.1951 42.3834C53.4204 42.093 55.7373 42.3961 57.9343 43.0658ZM47.0293 58.7694C45.7265 58.7021 44.3411 58.4158 42.9975 58.0032C42.2786 55.7045 41.9998 53.3095 42.3454 51.0051L49.9946 58.6544C49.0521 58.796 48.0591 58.8364 47.0293 58.7694ZM76.1318 40.2097C72.8206 43.521 66.8376 43.2573 62.3978 42.4515C59.6657 42.0247 56.7818 40.8296 54 40.697C49.9856 40.4366 46.4328 41.6353 43.9963 44.0719C41.5595 46.5088 40.3613 50.0617 40.6225 54.0795C40.6899 55.2087 40.8749 56.3506 41.1862 57.5244C40.5776 57.3797 39.9514 57.2364 39.3397 57.1167C39.1274 56.142 38.9947 55.1901 38.9403 54.2459C38.646 49.7296 40.0257 45.7005 42.8254 42.9009C45.6246 40.1016 49.6532 38.7209 54.169 39.0142C56.7345 39.1518 58.452 39.8462 61.156 40.4571C65.7842 41.4793 71.9364 42.0633 74.961 39.0386C75.2726 38.7111 75.8399 38.6928 76.1534 39.0171C76.4803 39.3322 76.4588 39.8971 76.1318 40.2097Z" fill="white"/>
</g>
<defs>
<linearGradient id="paint0_linear_215_26" x1="100" y1="60.7438" x2="4.95867" y2="27.686" gradientUnits="userSpaceOnUse">
<stop stop-color="#AF278D"/>
<stop offset="1" stop-color="#D48EBB"/>
</linearGradient>
<clipPath id="clip0_215_26">
<rect width="55" height="55" fill="white" transform="translate(23 23)"/>
</clipPath>
</defs>
</svg>
