<svg xmlns="http://www.w3.org/2000/svg" width="100" height="100" fill="none"><circle cx="50" cy="50" r="49" fill="url(#a)" stroke="#A0007C" stroke-width="2"/><path fill="#fff" d="M72.725 26.669A8.327 8.327 0 0 0 66.581 24H33.418c-4.808 0-8.718 4.192-8.392 8.988l1.467 21.628c.064.942 1.526.843 1.462-.1L26.487 32.89c-.269-3.962 2.96-7.424 6.932-7.424H66.58c3.97 0 7.2 3.462 6.93 7.424l-2.25 33.165c-.246 3.634-3.29 6.481-6.93 6.481H35.668c-3.64 0-6.685-2.847-6.932-6.481l-.51-7.533c-.065-.943-1.526-.844-1.462.099l.51 7.533c.3 4.4 3.986 7.847 8.394 7.847H64.33c4.408 0 8.094-3.447 8.393-7.847l2.25-33.165a8.336 8.336 0 0 0-2.248-6.32Z"/><path fill="#fff" d="M57.372 41.041c0 .405.328.732.733.732h2.93a.732.732 0 0 0 .732-.732c0-6.489-5.279-11.768-11.768-11.768-6.488 0-11.767 5.28-11.767 11.768 0 .405.328.732.732.732h15.137c.945 0 .945-1.464 0-1.464h-3.548l-3.186-5.681c-.462-.824-1.74-.107-1.278.717l2.785 4.964h-9.152a10.257 10.257 0 0 1 2.417-5.921l1.005 1.005c.668.668 1.704-.368 1.036-1.036l-1.017-1.017a10.313 10.313 0 0 1 3.367-2l.365 1.365c.244.909 1.66.533 1.415-.38l-.37-1.38a10.35 10.35 0 0 1 3.908-.04l-.36 1.347c-.245.913 1.17 1.288 1.414.379l.365-1.36a10.3 10.3 0 0 1 3.393 1.916l-.969.969c-.668.668.368 1.704 1.036 1.036l.98-.98a10.262 10.262 0 0 1 2.57 6.097h-2.172a.732.732 0 0 0-.733.732Zm-25-12.353a2.59 2.59 0 0 0-2.587 2.587 2.59 2.59 0 0 0 2.587 2.588 2.59 2.59 0 0 0 2.588-2.588 2.59 2.59 0 0 0-2.588-2.587Zm0 3.71a1.124 1.124 0 0 1 0-2.246 1.124 1.124 0 0 1 0 2.246Zm35.254 1.465a2.59 2.59 0 0 0 2.588-2.588 2.59 2.59 0 0 0-2.588-2.587 2.59 2.59 0 0 0-2.588 2.587 2.59 2.59 0 0 0 2.588 2.588Zm0-3.71a1.123 1.123 0 1 1 0 2.248 1.123 1.123 0 0 1 0-2.249ZM32.03 66.334a2.59 2.59 0 0 0 2.588 2.588 2.59 2.59 0 0 0 2.588-2.588 2.59 2.59 0 0 0-2.588-2.588 2.59 2.59 0 0 0-2.587 2.588Zm2.588-1.123a1.124 1.124 0 1 1 0 2.244 1.124 1.124 0 0 1 0-2.244Zm28.174 1.123a2.59 2.59 0 0 0 2.588 2.588 2.59 2.59 0 0 0 2.588-2.588 2.59 2.59 0 0 0-2.588-2.588 2.59 2.59 0 0 0-2.588 2.588Zm2.588-1.123a1.124 1.124 0 0 1 0 2.246 1.124 1.124 0 0 1 0-2.246Z"/><defs><linearGradient id="a" x1="100" x2="4.959" y1="60.744" y2="27.686" gradientUnits="userSpaceOnUse"><stop stop-color="#AF278D"/><stop offset="1" stop-color="#D48EBB"/></linearGradient></defs></svg>