<svg xmlns="http://www.w3.org/2000/svg" width="80" height="80" fill="none"><circle cx="40" cy="40" r="39" fill="url(#a)" stroke="#A0007C" stroke-width="2"/><g fill="#fff" clip-path="url(#b)"><path d="m60.58 57.081-5.28-5.138a.66.66 0 1 0-.92.945l5.28 5.139a.657.657 0 0 0 .933-.013.66.66 0 0 0-.013-.933Zm-8.879-8.641a6.025 6.025 0 0 0-5.778-4.352 6 6 0 0 0-3.783 1.337c.014-.127.023-.257.023-.388 0-.864-.566-1.871-1.683-2.995a14.608 14.608 0 0 0-1.57-1.361.66.66 0 0 0-.777 0c-.033.023-.797.583-1.57 1.361-1.117 1.124-1.683 2.131-1.683 2.995l.003.09-3.27-3.27a2.646 2.646 0 0 0-1.883-.78c-.712 0-1.38.277-1.884.78a2.648 2.648 0 0 0-.692 1.21l-.023-.024a2.604 2.604 0 0 0-3.68 0 2.59 2.59 0 0 0-.672 1.167 2.787 2.787 0 0 0-1.75-.611c-.75 0-1.456.292-1.987.823a2.813 2.813 0 0 0-.002 3.972l1.596 1.608a.66.66 0 1 0 .937-.929l-1.598-1.61a1.493 1.493 0 0 1 1.054-2.545c.399 0 .773.155 1.055.437l8.207 8.207a.66.66 0 0 0 .467.194h10.734a.66.66 0 1 0 0-1.32h-7.255a1.881 1.881 0 0 1-1.88-1.879c0-1.036.843-1.88 1.88-1.88h6.26c.536 0 1.026-.295 1.278-.772a4.685 4.685 0 0 1 4.148-2.498 4.702 4.702 0 0 1 4.521 3.438c.054.193.156.367.296.501l1.618 1.575a.66.66 0 0 0 .92-.946L51.7 48.441Zm-13.18-6.394c1.07.863 2.322 2.189 2.322 2.99 0 1.28-1.04 2.32-2.318 2.323h-.007a2.325 2.325 0 0 1-2.319-2.322c0-.802 1.253-2.128 2.323-2.991Zm-7.49 10.39-6.647-6.647a1.283 1.283 0 0 1 1.814-1.813l5.17 5.17a3.18 3.18 0 0 0 .283 3.29h-.62Zm1.159-4.334-3.411-3.41a1.336 1.336 0 0 1-.394-.952 1.346 1.346 0 0 1 2.295-.95l4.569 4.569h-1.012c-.779 0-1.492.28-2.047.743Z"/><path d="M46.909 58.8a.66.66 0 0 0-.467-.193H32.298a3.06 3.06 0 0 1-2.157-.898l-6.588-6.64a.66.66 0 1 0-.936.93l6.588 6.639a4.385 4.385 0 0 0 3.093 1.288h13.871l1.881 1.881a.658.658 0 0 0 .933 0 .66.66 0 0 0 0-.933L46.909 58.8ZM31.197 32.512a2.654 2.654 0 0 0 2.641 2.366h1.3v2.063c0 1.183.962 2.145 2.145 2.145h2.476a2.148 2.148 0 0 0 2.146-2.145v-2.063h1.3a2.654 2.654 0 0 0 2.64-2.366l.187-1.683a.66.66 0 0 0-1.312-.145l-.185 1.683a1.336 1.336 0 0 1-1.33 1.191h-9.367a1.336 1.336 0 0 1-1.33-1.19l-.669-6.06h2.239v.122a1.1 1.1 0 0 0 1.1 1.1h1.213v1.213c0 .607.494 1.1 1.1 1.1h2.148a1.1 1.1 0 0 0 1.1-1.1v-1.212h1.214c.606 0 1.1-.494 1.1-1.1v-.122h2.15l-.172 1.564a.66.66 0 1 0 1.311.145l1.136-10.286a.66.66 0 1 0-1.311-.145l-.818 7.402h-2.296v-.707c0-.607-.494-1.1-1.1-1.1H40.74v-1.213c0-.607-.494-1.1-1.1-1.1h-2.148c-.607 0-1.101.493-1.101 1.1v1.213h-1.213c-.606 0-1.1.493-1.1 1.1v.707h-2.385l-.817-7.402a.66.66 0 0 0-1.311.145l1.632 14.78Zm9.389 4.429c0 .455-.37.826-.826.826h-2.477a.827.827 0 0 1-.826-.826v-2.063h4.13v2.063h-.001ZM35.397 24.5h1.654a.66.66 0 0 0 .66-.66v-1.653h1.71v1.653c0 .365.295.66.66.66h1.653v1.71H40.08a.66.66 0 0 0-.66.66v1.654h-1.71V26.87a.66.66 0 0 0-.66-.66h-1.653V24.5Z"/></g><defs><linearGradient id="a" x1="80" x2="3.967" y1="48.595" y2="22.149" gradientUnits="userSpaceOnUse"><stop stop-color="#AF278D"/><stop offset="1" stop-color="#D48EBB"/></linearGradient><clipPath id="b"><path fill="#fff" d="M17 17h45v45H17z"/></clipPath></defs></svg>