<svg xmlns="http://www.w3.org/2000/svg" width="100" height="100" fill="none"><circle cx="50" cy="50" r="49" fill="url(#a)" stroke="#A0007C" stroke-width="2"/><g fill="#fff" clip-path="url(#b)"><path d="M71.667 35.917v-7.584a2.5 2.5 0 0 0-2.5-2.5h-35a5.84 5.84 0 0 0-5.834 5.834v15.35C26.333 47.7 25 48.685 25 50v20c0 2.864 6.264 4.167 12.083 4.167 5.82 0 12.084-1.303 12.084-4.167v-.833h21.666A4.172 4.172 0 0 0 75 65V40a4.174 4.174 0 0 0-3.333-4.083Zm-37.5-8.417h35c.46 0 .833.373.833.834v2.5H32.5a.833.833 0 0 0 0 1.666H70v3.334H34.167a4.167 4.167 0 0 1 0-8.334Zm2.916 20c6.873 0 10.417 1.75 10.417 2.5s-3.544 2.5-10.417 2.5c-6.872 0-10.416-1.75-10.416-2.5s3.544-2.5 10.416-2.5ZM47.5 55c0 .75-3.544 2.5-10.417 2.5-6.872 0-10.416-1.75-10.416-2.5v-2.75c2.25 1.306 6.435 1.917 10.416 1.917 3.981 0 8.167-.611 10.417-1.917V55Zm-10.417 4.167c3.981 0 8.167-.611 10.417-1.917V60c0 .75-3.544 2.5-10.417 2.5-6.872 0-10.416-1.75-10.416-2.5v-2.75c2.25 1.306 6.435 1.917 10.416 1.917Zm-10.416 3.087c2.25 1.302 6.435 1.913 10.416 1.913 3.981 0 8.167-.611 10.417-1.917V65c0 .75-3.544 2.5-10.417 2.5-6.872 0-10.416-1.75-10.416-2.5v-2.746ZM47.5 70c0 .75-3.544 2.5-10.417 2.5-6.872 0-10.416-1.75-10.416-2.5v-2.75c2.25 1.306 6.435 1.917 10.416 1.917 3.981 0 8.167-.611 10.417-1.917V70Zm23.333-2.5H49.167V50c0-2.863-6.264-4.166-12.084-4.166a32.953 32.953 0 0 0-7.083.715V35.742a5.814 5.814 0 0 0 4.167 1.758h36.666a2.5 2.5 0 0 1 2.5 2.5v8.334h-4.166a4.167 4.167 0 0 0 0 8.333h4.166V65a2.5 2.5 0 0 1-2.5 2.5Zm2.5-12.5h-4.166a2.5 2.5 0 1 1 0-5h4.166v5Z"/><path d="M69.167 53.334a.833.833 0 1 0 0-1.667.833.833 0 0 0 0 1.667ZM55 39.167h-1.667a.833.833 0 0 0 0 1.667H55a.833.833 0 0 0 0-1.667ZM71.667 40a.833.833 0 0 0-.834-.833h-12.5a.833.833 0 0 0 0 1.667h12.5c.46 0 .834-.373.834-.834Z"/></g><defs><linearGradient id="a" x1="100" x2="4.959" y1="60.744" y2="27.686" gradientUnits="userSpaceOnUse"><stop stop-color="#AF278D"/><stop offset="1" stop-color="#D48EBB"/></linearGradient><clipPath id="b"><path fill="#fff" d="M25 25h50v50H25z"/></clipPath></defs></svg>