<svg xmlns="http://www.w3.org/2000/svg" width="50" height="50" fill="none"><path fill="#A0007C" d="M34.18 18.359c-.937 0-1.868.084-2.783.246.161-.91.244-1.841.244-2.785 0-4.226-1.646-8.199-4.634-11.186A15.716 15.716 0 0 0 15.82 0 15.717 15.717 0 0 0 4.634 4.634 15.717 15.717 0 0 0 0 15.82c0 4.226 1.646 8.2 4.634 11.187a15.717 15.717 0 0 0 11.186 4.634c4.227 0 8.2-1.646 11.187-4.634a15.747 15.747 0 0 0 3.867-6.297 13.926 13.926 0 0 1 3.305-.398c7.647 0 13.868 6.221 13.868 13.867 0 7.319-5.698 13.33-12.89 13.833v-20.18a.977.977 0 0 0-1.954 0v20.18c-7.193-.503-12.891-6.514-12.891-13.833a.977.977 0 0 0-1.953 0c0 8.724 7.097 15.821 15.82 15.821C42.903 50 50 42.903 50 34.18c0-8.724-7.097-15.821-15.82-15.821Zm-8.554 7.267a13.777 13.777 0 0 1-9.806 4.061 13.777 13.777 0 0 1-9.805-4.06 13.777 13.777 0 0 1-4.062-9.807c0-3.376 1.2-6.568 3.395-9.09l16.624 16.623a.974.974 0 0 0 1.381 0 .976.976 0 0 0 0-1.38L6.73 5.347a13.764 13.764 0 0 1 9.09-3.395c3.705 0 7.187 1.443 9.806 4.062a13.776 13.776 0 0 1 4.061 9.805c0 3.705-1.442 7.187-4.06 9.806Z"/><path fill="#A0007C" d="M34.87 23.235a.983.983 0 0 0-.69-.286.98.98 0 0 0-.69 1.667.982.982 0 0 0 .69.286.983.983 0 0 0 .69-.286.984.984 0 0 0 .286-.69.983.983 0 0 0-.286-.69ZM24.37 7.27a12.124 12.124 0 0 0-9.063-3.53.976.976 0 1 0 .082 1.951c2.828-.119 5.6.96 7.6 2.96a.974.974 0 0 0 1.382 0 .976.976 0 0 0 0-1.38Z"/></svg>