<svg xmlns="http://www.w3.org/2000/svg" width="100" height="100" fill="none"><circle cx="50" cy="50" r="49" fill="url(#a)" stroke="#A0007C" stroke-width="2"/><g clip-path="url(#b)"><path fill="#fff" d="M77.293 37.878c-.636-.651-1.642-.876-2.5-.58L63.715 26.16a2.437 2.437 0 0 0-.594-2.453c-.95-.95-2.508-.942-3.47.021-1.039 1.039-1.839 2.344-2.377 3.88-.36.98 1.187 1.525 1.52.532.458-1.305 1.13-2.406 1.996-3.272.776-.797 1.97.394 1.17 1.17-2.759 2.76-2.514 8.123-1.675 12.558-.776-.194-1.197-.328-1.825-.497-.401-2.391-.525-4.567-.368-6.473a.805.805 0 1 0-1.606-.132c-.153 1.864-.058 3.954.283 6.227a21.423 21.423 0 0 0-2.497-.315c-4.985-.323-9.455 1.223-12.587 4.355-3.133 3.133-4.679 7.603-4.354 12.587.048.817.15 1.637.305 2.473-4.874-.738-10.497-.582-13.909 2.83-.963.963-.972 2.52-.021 3.471.575.584 1.438.83 2.238.652l6.245 6.245a.806.806 0 0 0 1.139-1.14l-5.956-5.956c.922-.81 2.269-1.262 3.852-1.446l8.313 8.275c-.173 1.53-.61 2.909-1.46 3.875l-2.09-2.09a.806.806 0 0 0-1.14 1.14l2.377 2.377A2.416 2.416 0 0 0 39.593 78a2.48 2.48 0 0 0 1.756-.728c1.7-1.701 2.735-4.095 3.072-7.115.224-2.003.143-4.284-.24-6.793.787.146 1.567.246 2.334.296.736.052 1.482.065 2.2.035a.806.806 0 1 0-.065-1.61 18.16 18.16 0 0 1-2.03-.033 19.011 19.011 0 0 1-3.565-.59c-.476-.122-.944-.27-1.421-.398-1.633-.444-4.182-1.032-6.837-1.233-4.087-.31-7.034.408-8.758 2.132-.313.326-.877.348-1.193.02-.322-.322-.313-.857.022-1.191 3.21-3.21 8.903-3.07 13.629-2.197 2.788.445 5.636 1.661 8.427 1.783 4.014.261 7.567-.937 10.004-3.373 2.437-2.437 3.635-5.99 3.375-10.004a18.658 18.658 0 0 0-.566-3.464 43.48 43.48 0 0 0 1.842.4c.207.97.344 1.94.406 2.895.293 4.516-1.087 8.545-3.886 11.344-1.608 1.608-3.597 2.743-5.91 3.373a.806.806 0 0 0 .424 1.555c2.587-.705 4.816-1.98 6.625-3.789 3.132-3.132 4.679-7.602 4.355-12.588-.054-.824-.16-1.66-.313-2.496 2.522.378 4.817.454 6.832.223 3.038-.347 5.447-1.392 7.16-3.104.962-.963.972-2.52.02-3.471ZM40.21 76.132c-.335.334-.87.344-1.193.021-.327-.315-.305-.88.022-1.192 2.734-2.734 2.472-8.07 1.619-12.49.627.158 1.212.338 1.829.508.742 4.356.885 9.99-2.277 13.153Zm-1.28-14.068c.33 1.558.654 3.549.697 5.503l-6.215-6.187c1.75.03 3.651.288 5.519.684Zm23.867-34.543L73.445 38.23c-1.009.8-2.401 1.204-3.928 1.36l-8.105-8.107c.157-1.543.57-2.95 1.385-3.96Zm-.789 11.47c-.312-1.505-.615-3.411-.668-5.301l5.97 5.97c-1.89-.053-3.797-.356-5.302-.669Zm-17.346 6.734 1.345 1.346a.806.806 0 0 0 1.14-1.14L45.814 44.6c1.001-.818 2.182-1.43 3.496-1.82l8.911 8.91c-.39 1.314-1.002 2.495-1.82 3.497l-6.597-6.596a.806.806 0 0 0-1.14 1.14l6.61 6.609c-.978.838-2.137 1.472-3.43 1.886l-9.07-9.07c.414-1.293 1.048-2.451 1.887-3.43Zm13.272-2.66c.67 2.2.973 4.515.682 6.74l-7.42-7.422c2.224-.29 4.541.013 6.738.683ZM47.03 58.77c-1.303-.067-2.688-.353-4.032-.766-.718-2.298-.997-4.694-.652-6.998l7.65 7.65a13.94 13.94 0 0 1-2.966.114Zm29.103-18.56c-3.311 3.312-9.294 3.048-13.734 2.242-2.732-.426-5.616-1.621-8.398-1.754-4.014-.26-7.567.938-10.004 3.375-2.437 2.437-3.635 5.99-3.373 10.008a17.42 17.42 0 0 0 .563 3.444 47.529 47.529 0 0 0-1.846-.407 18.425 18.425 0 0 1-.4-2.871c-.294-4.516 1.086-8.546 3.885-11.345 2.8-2.8 6.828-4.18 11.344-3.887 2.566.138 4.283.832 6.987 1.443 4.628 1.022 10.78 1.606 13.805-1.418.312-.328.879-.346 1.192-.022.327.315.306.88-.021 1.193Z"/></g><defs><linearGradient id="a" x1="100" x2="4.959" y1="60.744" y2="27.686" gradientUnits="userSpaceOnUse"><stop stop-color="#AF278D"/><stop offset="1" stop-color="#D48EBB"/></linearGradient><clipPath id="b"><path fill="#fff" d="M23 23h55v55H23z"/></clipPath></defs></svg>