<svg xmlns="http://www.w3.org/2000/svg" width="100" height="100" fill="none"><circle cx="50" cy="50" r="49" fill="url(#a)" stroke="#A0007C" stroke-width="2"/><g fill="#fff" clip-path="url(#b)"><path d="M77.582 38.182a2.599 2.599 0 0 0-1.456-1.406 2.625 2.625 0 0 0-2.042.05 2.656 2.656 0 0 0-1.34 3.455 24.56 24.56 0 0 1 1.981 9.485c.126 13.54-10.78 24.737-24.312 24.957-8.737.142-16.723-4.192-21.37-11.594a.879.879 0 0 0-1.49.934 26.65 26.65 0 0 0 9.612 9.109 26.491 26.491 0 0 0 13.277 3.309c14.494-.236 26.176-12.228 26.041-26.732A26.31 26.31 0 0 0 74.36 39.59a.879.879 0 0 1 1.128-1.176.854.854 0 0 1 .479.461 28.055 28.055 0 0 1 2.275 11.005c.031 7.548-2.897 14.663-8.246 20.035-5.348 5.37-12.45 8.327-19.996 8.327-15.573 0-28.242-12.67-28.242-28.242 0-15.573 12.67-28.242 28.242-28.242 2.327 0 4.64.284 6.877.843a.879.879 0 0 0 .426-1.705A30.108 30.108 0 0 0 50 20c-8.013 0-15.547 3.12-21.213 8.787C23.12 34.453 20 41.987 20 50c0 8.013 3.12 15.547 8.787 21.213C34.453 76.88 41.987 80 50 80c8.017 0 15.561-3.142 21.241-8.845C76.922 65.45 80.033 57.892 80 49.873a29.804 29.804 0 0 0-2.418-11.69Z"/><path d="M60.68 23.848c2.348.96 4.56 2.236 6.575 3.794a.879.879 0 0 0 1.19-.108l1.075-1.193a.514.514 0 0 1 .534-.155.512.512 0 0 1 .376.409l.936 4.924c.064.337-.034.69-.264.946-.23.255-.571.39-.914.362l-4.994-.416a.514.514 0 0 1-.447-.331.514.514 0 0 1 .098-.547l1.241-1.378a.88.88 0 0 0-.123-1.29 26.364 26.364 0 0 0-15.96-5.35c-14.404 0-26.248 11.605-26.484 26.043-.06 3.705.63 7.3 2.05 10.685a.879.879 0 1 0 1.621-.68 24.578 24.578 0 0 1-1.913-9.976c.22-13.481 11.276-24.313 24.725-24.313 4.986-.012 10.028 1.542 14.125 4.43l-.588.652a2.272 2.272 0 0 0-.426 2.371 2.272 2.272 0 0 0 1.934 1.435l4.995.417a2.88 2.88 0 0 0 2.366-.938 2.88 2.88 0 0 0 .685-2.45l-.936-4.925a2.272 2.272 0 0 0-1.63-1.774 2.272 2.272 0 0 0-2.313.672l-.537.596a29.957 29.957 0 0 0-6.332-3.54.879.879 0 0 0-.665 1.628Z"/><path d="M38.728 43.367a1.141 1.141 0 0 0-1.06-.71c-.467 0-.883.28-1.06.712l-.007.02-4.414 11.59a.879.879 0 1 0 1.642.626l.884-2.321h5.88l.874 2.318a.88.88 0 1 0 1.644-.62L38.737 43.39l-.01-.024Zm-3.346 8.16 2.284-5.996 2.263 5.995h-4.547Zm30.438-7.112a.879.879 0 1 0 0-1.758h-4.953a.879.879 0 0 0-.879.88v11.755a.88.88 0 0 0 .879.879h4.953a.879.879 0 1 0 0-1.758h-4.074v-4.12h3.709a.879.879 0 1 0 0-1.758h-3.71v-4.12h4.075Zm-14.622 0c1.002 0 1.968.295 2.794.854a.879.879 0 1 0 .984-1.457 6.724 6.724 0 0 0-3.778-1.154 6.764 6.764 0 0 0-6.757 6.756 6.764 6.764 0 0 0 6.757 6.757c3.505 0 5.953-2.779 5.953-6.757a.879.879 0 0 0-.88-.879h-3.516a.879.879 0 1 0 0 1.758h2.584c-.253 2.06-1.433 4.12-4.141 4.12a5.004 5.004 0 0 1-4.999-4.999 5.004 5.004 0 0 1 4.999-4.999Z"/></g><defs><linearGradient id="a" x1="100" x2="4.959" y1="60.744" y2="27.686" gradientUnits="userSpaceOnUse"><stop stop-color="#AF278D"/><stop offset="1" stop-color="#D48EBB"/></linearGradient><clipPath id="b"><path fill="#fff" d="M20 20h60v60H20z"/></clipPath></defs></svg>