<svg width="100" height="100" viewBox="0 0 100 100" fill="none" xmlns="http://www.w3.org/2000/svg">
<circle cx="50" cy="50" r="49" fill="url(#paint0_linear_215_23)" stroke="#A0007C" stroke-width="2"/>
<g clip-path="url(#clip0_215_23)">
<path d="M41.8953 35.5352C41.4224 35.6459 41.1288 36.119 41.2396 36.5919C41.2817 36.7719 41.2267 36.9547 41.0926 37.0808C40.9582 37.2072 40.7724 37.2507 40.5953 37.1977C40.1305 37.0581 39.64 37.3222 39.5004 37.7874C39.3609 38.2526 39.625 38.7427 40.0901 38.8823C40.3035 38.9463 40.5223 38.9775 40.7398 38.9775C41.3107 38.9775 41.8718 38.7624 42.2977 38.3619C42.8855 37.8089 43.1363 36.977 42.9522 36.1908C42.8413 35.718 42.3678 35.4241 41.8953 35.5352Z" fill="white"/>
<path d="M79.987 41.3193C79.7693 34.8202 76.4256 28.9636 71.0429 25.6525C67.8661 23.6984 63.7204 23.1482 59.6688 24.1422C56.0508 25.0299 53.2316 27.1761 50.5279 31.1009C50.4261 31.2488 50.2256 31.5454 50.0138 31.8595C47.9093 28.6938 45.2224 25.486 40.8218 24.2364C36.7255 23.0731 32.2903 23.6025 28.9575 25.6526C23.5747 28.9637 20.2311 34.8203 20.0134 41.3193C19.7904 47.9783 22.348 54.0237 27.8326 59.801C32.819 65.0537 39.0686 69.3252 45.1123 73.456C46.333 74.2903 47.595 75.153 48.8068 75.9976C49.1637 76.2462 49.582 76.3706 50.0003 76.3706C50.4186 76.3706 50.8369 76.2462 51.1938 75.9976C52.4055 75.1531 53.6674 74.2905 54.8879 73.4564C60.9318 69.3255 67.1814 65.0539 72.1679 59.8011C73.9312 57.9437 75.4095 56.0342 76.5618 54.1256C76.8128 53.7099 76.6791 53.1693 76.2634 52.9183C75.8475 52.6674 75.3072 52.8009 75.056 53.2167C73.9694 55.0167 72.5686 56.8246 70.8923 58.5902C66.0345 63.7073 59.8634 67.9253 53.8955 72.0045C52.6716 72.8408 51.4064 73.7058 50.1883 74.5547C50.0742 74.6343 49.9266 74.6342 49.8125 74.5547C48.5941 73.7055 47.3287 72.8405 46.1048 72.004C40.137 67.925 33.966 63.7071 29.1083 58.5901C23.9649 53.172 21.5649 47.5419 21.7713 41.378C21.9693 35.4704 25.0002 30.1515 29.8791 27.1505C32.7994 25.3541 36.7106 24.897 40.3415 25.9282C44.2481 27.0375 46.6494 29.8113 49.2575 33.927C49.4166 34.178 49.6918 34.3318 49.9889 34.3356C50.2844 34.3401 50.5651 34.1928 50.7307 33.946C50.7405 33.9313 51.7146 32.4784 51.9763 32.0987C54.4175 28.5548 56.9191 26.6278 60.088 25.8502C63.6329 24.9806 67.3839 25.4664 70.1214 27.1505C75.0003 30.1515 78.0314 35.4703 78.2292 41.378C78.3252 44.2441 77.8481 47.038 76.8109 49.6821C76.6336 50.1342 76.8564 50.6445 77.3085 50.8219C77.7605 50.9992 78.2708 50.7764 78.4483 50.3244C79.5735 47.4558 80.0911 44.4262 79.987 41.3193Z" fill="white"/>
<path d="M69.43 53.0381C68.5945 54.7583 67.873 56.2439 66.1694 56.6415C65.4679 56.8052 64.9984 56.6268 64.2201 56.3315C64.0467 56.2657 63.8672 56.1976 63.6777 56.1309C62.9076 55.8593 62.2262 55.8779 61.6526 56.1862C60.6472 56.7264 60.3376 57.9604 60.0889 58.952C60.0558 59.0839 60.0232 59.2136 59.9898 59.3386C59.2169 62.228 57.1669 63.9428 54.0611 64.2975C51.3289 64.6096 49.256 63.3714 47.7247 60.5124L47.6414 60.3564C47.0775 59.2997 46.4383 58.102 45.1944 57.3942C44.5428 57.0235 43.9132 56.5977 43.3235 56.1289C42.9432 55.8266 42.3902 55.8897 42.0879 56.2699C41.7856 56.65 41.8488 57.2032 42.2289 57.5055C42.8894 58.0307 43.5945 58.5075 44.3248 58.9229C45.1262 59.3789 45.5943 60.256 46.0898 61.1845L46.1743 61.3428C47.8689 64.5069 50.2401 66.1048 53.2336 66.1048C53.5682 66.1048 53.9107 66.0848 54.2608 66.0449C58.0894 65.6075 60.7274 63.3873 61.6889 59.7931C61.7246 59.6595 61.7595 59.5209 61.7948 59.38C61.9418 58.7938 62.164 57.908 62.485 57.7355C62.6415 57.6514 62.933 57.7332 63.0929 57.7896C63.2688 57.8516 63.4353 57.9148 63.5961 57.9759C64.4562 58.3025 65.3459 58.6398 66.5691 58.3543C69.0888 57.7663 70.1106 55.6627 71.0122 53.8066C71.1849 53.4511 71.3479 53.1152 71.5216 52.7866C71.9354 52.0009 71.9982 51.0718 71.694 50.2375C71.3896 49.4034 70.7434 48.7329 69.9207 48.3982C67.6576 47.4775 66.3635 49.3348 65.6682 50.3326C65.1262 51.1105 64.5877 51.5369 64.111 51.5655C63.6114 51.5963 63.1266 51.1796 62.8105 50.8252C61.5536 49.4164 60.2272 48.5247 57.8354 48.7537C57.5637 48.7797 57.2935 48.828 57.027 48.8956C56.5582 48.2637 56.0086 47.7632 55.551 47.4069C56.7479 46.154 57.3207 44.828 57.206 43.5609C57.1124 42.5263 56.6417 41.6754 55.8451 41.1004C53.876 39.6792 50.5059 40.3229 49.5198 40.5539C49.0519 40.6635 48.5912 40.7905 48.1399 40.9317C48.1858 40.0626 48.1207 39.1822 47.9353 38.308C46.7895 32.9042 41.4608 29.4396 36.0571 30.5858C33.4394 31.1409 31.1945 32.682 29.7359 34.9256C28.2774 37.1691 27.7798 39.8463 28.3349 42.464C29.2548 46.8026 32.8714 49.8886 37.0581 50.3445C37.569 51.7636 38.286 53.1092 39.1957 54.351C39.3679 54.5861 39.635 54.7107 39.9057 54.7107C40.0861 54.7107 40.268 54.6554 40.4247 54.5407C40.8164 54.2537 40.9014 53.7034 40.6144 53.3117C39.9389 52.3895 39.3835 51.4038 38.954 50.3708C39.3719 50.3362 39.7922 50.2755 40.2128 50.1863C42.4659 49.7086 44.4413 48.4987 45.8784 46.7408C45.9643 46.7883 46.0567 46.8338 46.1573 46.8756C46.5661 47.0453 47.0294 47.1301 47.5445 47.1301C48.2514 47.1301 49.0558 46.9703 49.9509 46.6513L52.6707 45.7337C53.1309 45.5784 53.378 45.0795 53.2228 44.6193C53.0676 44.1592 52.5688 43.9121 52.1085 44.0672L49.3816 44.9873C49.3766 44.9889 49.3717 44.9907 49.3668 44.9923C48.0008 45.4803 47.2596 45.4094 46.8804 45.2678C47.3033 44.5127 47.6227 43.7161 47.836 42.8946C48.5031 42.6472 49.2021 42.4347 49.9209 42.2662C52.2853 41.7119 54.083 41.9976 54.8157 42.5264C55.203 42.8059 55.4059 43.185 55.4542 43.7192C55.5438 44.7083 54.7983 45.6787 54.1572 46.3185C53.4212 47.0533 52.4704 47.612 51.1654 48.077C49.7942 48.5655 48.2643 48.8835 46.6186 49.0221C46.1347 49.0629 45.7753 49.4883 45.8161 49.9722C45.8548 50.4311 46.2391 50.7779 46.6914 50.7778C46.7161 50.7778 46.7411 50.7767 46.7662 50.7746C48.5629 50.6232 50.2416 50.2731 51.7555 49.7338C52.69 49.4009 53.4796 49.0193 54.1625 48.568C54.4803 48.7886 54.9397 49.1475 55.3537 49.6202C55.0797 49.7944 54.8181 49.9915 54.5739 50.2111C52.9558 51.6658 52.0573 54.2863 52.389 56.5834C52.4585 57.0643 52.9054 57.3979 53.385 57.3281C53.8657 57.2587 54.199 56.8128 54.1297 56.3321C53.8853 54.6383 54.5816 52.5691 55.7498 51.5189C56.391 50.9424 57.1911 50.582 58.0028 50.5044C59.5129 50.3601 60.3616 50.7224 61.4978 51.9959C62.322 52.92 63.2603 53.379 64.2162 53.3209C65.2642 53.258 66.2381 52.5908 67.1109 51.3379C68.0638 49.9703 68.4855 49.7131 69.2574 50.0271C69.6265 50.1773 69.9049 50.4661 70.0414 50.8402C70.1779 51.2143 70.151 51.6145 69.9658 51.9658C69.7788 52.3196 69.6015 52.685 69.43 53.0381ZM45.0594 44.8878C43.857 46.7374 42.006 48.0081 39.8479 48.4657C37.6292 48.9362 35.5274 48.5422 33.6331 47.3106C31.7834 46.1082 30.5128 44.2574 30.0552 42.0993C29.5975 39.941 30.0078 37.7339 31.2102 35.8843C32.4126 34.0346 34.2634 32.764 36.4216 32.3064C36.997 32.1843 37.5707 32.1258 38.1367 32.1258C41.9533 32.1258 45.3916 34.7931 46.2144 38.6728C46.6721 40.8311 46.2619 43.0382 45.0594 44.8878Z" fill="white"/>
</g>
<defs>
<linearGradient id="paint0_linear_215_23" x1="100" y1="60.7438" x2="4.95867" y2="27.686" gradientUnits="userSpaceOnUse">
<stop stop-color="#AF278D"/>
<stop offset="1" stop-color="#D48EBB"/>
</linearGradient>
<clipPath id="clip0_215_23">
<rect width="60" height="60" fill="white" transform="translate(20 20)"/>
</clipPath>
</defs>
</svg>
