<svg xmlns="http://www.w3.org/2000/svg" width="100" height="100" fill="none"><circle cx="50" cy="50" r="49" fill="url(#a)" stroke="#A0007C" stroke-width="2"/><path fill="#fff" d="M71.006 56.828a.879.879 0 0 0-1.2.322l-5.39 9.335a5.543 5.543 0 0 0-2.204-.455 5.582 5.582 0 0 0-5.576 5.576 5.582 5.582 0 0 0 5.576 5.576 5.582 5.582 0 0 0 5.576-5.576 5.563 5.563 0 0 0-1.888-4.177l5.428-9.4a.879.879 0 0 0-.322-1.2Zm-8.794 18.596a3.822 3.822 0 0 1-3.818-3.818 3.822 3.822 0 0 1 3.818-3.818 3.822 3.822 0 0 1 3.818 3.818 3.822 3.822 0 0 1-3.818 3.818Zm-8.454-4.697H43.294a5.584 5.584 0 0 0-5.506-4.697 5.582 5.582 0 0 0-5.576 5.576 5.582 5.582 0 0 0 5.576 5.576 5.584 5.584 0 0 0 5.506-4.697h10.464a.879.879 0 0 0 0-1.758Zm-15.97 4.697a3.822 3.822 0 0 1-3.818-3.818 3.822 3.822 0 0 1 3.818-3.818 3.822 3.822 0 0 1 3.818 3.818 3.823 3.823 0 0 1-3.818 3.818Zm-5.273-10.739a.878.878 0 1 0 1.523-.879L28.722 54.6a5.574 5.574 0 0 0 2.43-4.6 5.582 5.582 0 0 0-5.576-5.576A5.582 5.582 0 0 0 20 50a5.582 5.582 0 0 0 5.576 5.576c.538 0 1.059-.078 1.552-.222l5.387 9.331ZM21.758 50a3.822 3.822 0 0 1 3.818-3.818A3.822 3.822 0 0 1 29.394 50a3.822 3.822 0 0 1-3.818 3.818A3.822 3.822 0 0 1 21.758 50Zm7.241-6.837a.878.878 0 0 0 1.2-.322l5.385-9.326a5.542 5.542 0 0 0 2.204.455 5.582 5.582 0 0 0 5.576-5.576 5.582 5.582 0 0 0-5.576-5.576 5.582 5.582 0 0 0-5.576 5.576c0 1.661.731 3.154 1.888 4.177l-5.423 9.391A.879.879 0 0 0 29 43.163Zm8.789-18.587a3.822 3.822 0 0 1 3.818 3.818 3.822 3.822 0 0 1-3.818 3.818 3.822 3.822 0 0 1-3.818-3.818 3.822 3.822 0 0 1 3.818-3.818Zm8.454 4.697h10.464a5.584 5.584 0 0 0 5.506 4.697 5.582 5.582 0 0 0 5.576-5.576 5.582 5.582 0 0 0-5.576-5.576 5.584 5.584 0 0 0-5.506 4.697H46.242a.879.879 0 0 0 0 1.758Zm15.97-4.697a3.822 3.822 0 0 1 3.818 3.818 3.822 3.822 0 0 1-3.818 3.818 3.822 3.822 0 0 1-3.818-3.818 3.822 3.822 0 0 1 3.818-3.818Zm12.212 19.848a5.56 5.56 0 0 0-1.552.221l-5.366-9.294a.879.879 0 1 0-1.522.88l5.294 9.169a5.574 5.574 0 0 0-2.43 4.6 5.582 5.582 0 0 0 5.576 5.576A5.582 5.582 0 0 0 80 50a5.582 5.582 0 0 0-5.576-5.576Zm0 9.394A3.822 3.822 0 0 1 70.606 50a3.822 3.822 0 0 1 3.818-3.818A3.822 3.822 0 0 1 78.242 50a3.822 3.822 0 0 1-3.818 3.818Z"/><defs><linearGradient id="a" x1="100" x2="4.959" y1="60.744" y2="27.686" gradientUnits="userSpaceOnUse"><stop stop-color="#AF278D"/><stop offset="1" stop-color="#D48EBB"/></linearGradient></defs></svg>