<svg xmlns="http://www.w3.org/2000/svg" width="100" height="100" fill="none"><circle cx="50" cy="50" r="49" fill="url(#a)" stroke="#A0007C" stroke-width="2"/><path fill="#fff" d="M72.481 26.519C66.343 20.38 58.181 17 49.5 17c-8.681 0-16.843 3.38-22.981 9.519C20.38 32.658 17 40.819 17 49.5c0 8.681 3.38 16.843 9.519 22.981C32.658 78.62 40.819 82 49.5 82c8.681 0 16.843-3.38 22.981-9.519C78.62 66.343 82 58.181 82 49.5c0-8.681-3.38-16.843-9.519-22.981Zm-1.346 44.615c-5.78 5.78-13.463 8.962-21.635 8.962-8.172 0-15.856-3.183-21.634-8.962-5.78-5.778-8.962-13.462-8.962-21.634s3.183-15.856 8.962-21.634c5.778-5.78 13.462-8.962 21.634-8.962s15.856 3.183 21.635 8.962c5.778 5.778 8.96 13.462 8.96 21.634s-3.182 15.856-8.96 21.635Z"/><path fill="#fff" d="M49.5 27.177a.952.952 0 0 0-.952.952v4.07a.952.952 0 0 0 1.904 0v-4.07a.952.952 0 0 0-.952-.952Zm0 38.671a.952.952 0 0 0-.952.952v4.07a.952.952 0 1 0 1.904 0V66.8a.952.952 0 0 0-.952-.952Zm21.371-17.3h-4.07a.952.952 0 0 0 0 1.904h4.07a.952.952 0 0 0 0-1.904Zm-38.671 0h-4.071a.952.952 0 1 0 0 1.904h4.07a.952.952 0 0 0 0-1.904Zm1.03-9.54-1.762-1.018a.952.952 0 1 0-.952 1.65l1.763 1.017a.949.949 0 0 0 1.3-.349.952.952 0 0 0-.348-1.3ZM68.484 59.36l-1.763-1.017a.952.952 0 1 0-.952 1.65l1.763 1.017a.952.952 0 1 0 .952-1.65Zm-7.822-29.192a.952.952 0 0 0-1.301.348l-1.018 1.763a.952.952 0 0 0 1.65.952l1.017-1.763a.952.952 0 0 0-.348-1.3ZM40.308 65.42a.952.952 0 0 0-1.3.35l-1.018 1.762a.952.952 0 0 0 1.649.952l1.018-1.763a.952.952 0 0 0-.349-1.3Zm28.524-27.081a.952.952 0 0 0-1.3-.349l-1.763 1.018a.952.952 0 1 0 .952 1.649l1.763-1.018a.952.952 0 0 0 .349-1.3ZM33.58 58.692a.952.952 0 0 0-1.301-.349l-1.763 1.018a.952.952 0 1 0 .952 1.649l1.763-1.018a.952.952 0 0 0 .348-1.3Zm7.077-26.413-1.018-1.763a.952.952 0 1 0-1.65.952l1.019 1.763a.952.952 0 1 0 1.649-.953ZM61.01 67.532l-1.018-1.763a.952.952 0 1 0-1.649.952l1.018 1.763a.952.952 0 1 0 1.65-.952Zm2.66-20.212a.952.952 0 0 0-1.085-.796l-10.432 1.605a2.99 2.99 0 0 0-2.653-1.616c-.477 0-.928.113-1.328.312l-10.21-10.21a.952.952 0 0 0-1.347 1.346l10.21 10.21a2.99 2.99 0 0 0 2.675 4.316c1.473 0 2.7-1.072 2.943-2.476l10.432-1.605a.952.952 0 0 0 .796-1.086ZM49.5 50.583a1.084 1.084 0 0 1 0-2.166c.597 0 1.083.486 1.083 1.083s-.486 1.083-1.083 1.083Z"/><path fill="#fff" d="M66.606 29.409a26.304 26.304 0 0 0-18.096-6.28 26.294 26.294 0 0 0-17.673 7.708 26.293 26.293 0 0 0-7.709 17.673 26.307 26.307 0 0 0 6.28 18.096.95.95 0 0 0 1.343.107.952.952 0 0 0 .107-1.342 24.407 24.407 0 0 1-5.827-16.79 24.395 24.395 0 0 1 7.152-16.398 24.395 24.395 0 0 1 16.397-7.152 24.408 24.408 0 0 1 16.79 5.827.952.952 0 0 0 1.236-1.449Zm2.985 2.985a.952.952 0 1 0-1.448 1.236 24.409 24.409 0 0 1 5.826 16.79 24.395 24.395 0 0 1-7.152 16.397 24.394 24.394 0 0 1-16.397 7.152 24.408 24.408 0 0 1-16.79-5.826.952.952 0 1 0-1.236 1.448 26.295 26.295 0 0 0 18.097 6.281 26.293 26.293 0 0 0 17.672-7.709 26.293 26.293 0 0 0 7.71-17.672 26.309 26.309 0 0 0-6.282-18.097Z"/><defs><linearGradient id="a" x1="100" x2="4.959" y1="60.744" y2="27.686" gradientUnits="userSpaceOnUse"><stop stop-color="#AF278D"/><stop offset="1" stop-color="#D48EBB"/></linearGradient></defs></svg>