<svg xmlns="http://www.w3.org/2000/svg" width="100" height="100" fill="none"><circle cx="50" cy="50" r="49" fill="url(#a)" stroke="#A0007C" stroke-width="2"/><g fill="#fff" clip-path="url(#b)"><path d="M41.895 35.535a.88.88 0 0 0-.655 1.057.506.506 0 0 1-.147.489.506.506 0 0 1-.498.117.88.88 0 0 0-.505 1.684 2.277 2.277 0 0 0 2.208-.52 2.277 2.277 0 0 0 .654-2.171.88.88 0 0 0-1.057-.656Z"/><path d="M79.987 41.32c-.218-6.5-3.561-12.356-8.944-15.668-3.177-1.954-7.323-2.504-11.374-1.51-3.618.888-6.437 3.034-9.141 6.959-.102.148-.302.444-.514.759-2.105-3.166-4.792-6.374-9.192-7.624-4.097-1.163-8.532-.634-11.865 1.417-5.382 3.31-8.726 9.167-8.944 15.666-.223 6.66 2.335 12.705 7.82 18.482 4.986 5.253 11.236 9.524 17.28 13.655 1.22.834 2.482 1.697 3.694 2.542a2.09 2.09 0 0 0 2.387 0 494.354 494.354 0 0 1 3.694-2.542c6.044-4.13 12.293-8.402 17.28-13.655 1.763-1.857 3.241-3.767 4.394-5.675a.88.88 0 0 0-1.506-.91c-1.087 1.8-2.487 3.609-4.164 5.374-4.858 5.117-11.029 9.335-16.996 13.414-1.224.837-2.49 1.702-3.708 2.55a.326.326 0 0 1-.376 0 497.117 497.117 0 0 0-3.707-2.55c-5.968-4.079-12.139-8.297-16.997-13.414-5.143-5.418-7.543-11.048-7.337-17.212.198-5.908 3.23-11.227 8.108-14.227 2.92-1.797 6.832-2.254 10.463-1.223 3.906 1.11 6.307 3.883 8.916 7.999a.88.88 0 0 0 1.473.019c.01-.015.984-1.468 1.245-1.847 2.441-3.544 4.943-5.471 8.112-6.249 3.545-.87 7.296-.384 10.033 1.3 4.88 3.002 7.91 8.32 8.108 14.228a20.709 20.709 0 0 1-1.418 8.304.88.88 0 0 0 1.637.642 22.457 22.457 0 0 0 1.539-9.005Z"/><path d="M69.43 53.038c-.836 1.72-1.557 3.206-3.26 3.604-.702.163-1.172-.015-1.95-.31a23.508 23.508 0 0 0-.542-.201c-.77-.272-1.452-.253-2.025.055-1.006.54-1.315 1.774-1.564 2.766a26.49 26.49 0 0 1-.1.387c-.772 2.889-2.822 4.604-5.928 4.959-2.732.312-4.805-.927-6.336-3.786l-.084-.156c-.563-1.056-1.203-2.254-2.447-2.962a14.688 14.688 0 0 1-1.87-1.265.88.88 0 1 0-1.095 1.377c.66.525 1.365 1.002 2.096 1.417.801.456 1.27 1.333 1.765 2.261l.084.159c1.695 3.164 4.066 4.762 7.06 4.762.334 0 .677-.02 1.027-.06 3.828-.438 6.466-2.658 7.428-6.252.036-.133.07-.272.106-.413.147-.586.369-1.472.69-1.645.157-.084.448-.002.608.055.176.062.342.125.503.186.86.327 1.75.664 2.973.378 2.52-.588 3.542-2.691 4.443-4.547.173-.356.336-.692.51-1.02a3.158 3.158 0 0 0 .172-2.55 3.158 3.158 0 0 0-1.773-1.839c-2.263-.92-3.558.937-4.253 1.935-.542.778-1.08 1.204-1.557 1.233-.5.03-.984-.386-1.3-.74-1.257-1.41-2.584-2.301-4.976-2.072a5.37 5.37 0 0 0-.808.142 7.866 7.866 0 0 0-1.476-1.49c1.197-1.252 1.77-2.578 1.655-3.845-.094-1.035-.564-1.886-1.36-2.46-1.97-1.422-5.34-.778-6.326-.547-.468.11-.929.236-1.38.378.046-.87-.02-1.75-.205-2.624-1.146-5.404-6.474-8.868-11.878-7.722a9.953 9.953 0 0 0-6.321 4.34 9.952 9.952 0 0 0-1.401 7.538c.92 4.339 4.536 7.425 8.723 7.88a15.872 15.872 0 0 0 2.138 4.007.878.878 0 0 0 1.229.19.88.88 0 0 0 .19-1.23 14.2 14.2 0 0 1-1.661-2.94 10.07 10.07 0 0 0 1.259-.185 9.941 9.941 0 0 0 5.665-3.445c.086.047.179.093.28.135.408.17.871.254 1.386.254.707 0 1.512-.16 2.407-.479l2.72-.917a.88.88 0 0 0-.563-1.667l-2.726.92-.015.005c-1.366.488-2.107.417-2.487.276a9.993 9.993 0 0 0 .956-2.373c.667-.248 1.366-.46 2.085-.629 2.364-.554 4.162-.268 4.895.26.387.28.59.659.638 1.193.09.99-.656 1.96-1.297 2.6-.736.734-1.687 1.293-2.992 1.758-1.37.489-2.9.806-4.546.945a.88.88 0 0 0 .147 1.753c1.797-.152 3.476-.502 4.99-1.041.934-.333 1.724-.715 2.407-1.166.317.22.777.58 1.19 1.052a5.9 5.9 0 0 0-.78.591c-1.617 1.455-2.516 4.075-2.184 6.372a.88.88 0 0 0 1.74-.25c-.244-1.695.453-3.764 1.62-4.814a3.975 3.975 0 0 1 2.254-1.015c1.51-.144 2.359.218 3.495 1.492.824.924 1.762 1.383 2.718 1.325 1.048-.063 2.022-.73 2.895-1.983.953-1.368 1.374-1.625 2.146-1.31.37.15.648.438.784.812.137.374.11.774-.075 1.126-.187.354-.364.719-.536 1.072Zm-24.37-8.15a8.205 8.205 0 0 1-5.212 3.578c-2.219.47-4.32.076-6.215-1.155a8.205 8.205 0 0 1-3.578-5.212 8.205 8.205 0 0 1 1.155-6.215 8.205 8.205 0 0 1 5.212-3.578 8.253 8.253 0 0 1 1.715-.18c3.816 0 7.255 2.667 8.077 6.547a8.205 8.205 0 0 1-1.155 6.215Z"/></g><defs><linearGradient id="a" x1="100" x2="4.959" y1="60.744" y2="27.686" gradientUnits="userSpaceOnUse"><stop stop-color="#AF278D"/><stop offset="1" stop-color="#D48EBB"/></linearGradient><clipPath id="b"><path fill="#fff" d="M20 20h60v60H20z"/></clipPath></defs></svg>