<svg xmlns="http://www.w3.org/2000/svg" width="100" height="100" fill="none"><circle cx="50" cy="50" r="49" fill="url(#a)" stroke="#A0007C" stroke-width="2"/><path fill="#fff" d="m53.898 23.213-2.213-.553-1.188-1.915a.587.587 0 0 0-.996 0l-1.186 1.915-2.212.553a.587.587 0 0 0-.3.951l1.47 1.702-.176 2.285a.584.584 0 0 0 .81.584l2.094-.886 2.09.886a.586.586 0 0 0 .814-.584l-.176-2.285 1.47-1.702a.588.588 0 0 0-.301-.951Zm-2.217 2.072a.586.586 0 0 0-.141.428l.122 1.566-1.432-.607a.587.587 0 0 0-.46 0l-1.431.607.122-1.566a.586.586 0 0 0-.143-.428L47.31 24.12l1.519-.382a.594.594 0 0 0 .356-.258L50 22.165l.815 1.315a.58.58 0 0 0 .356.258l1.517.382-1.008 1.165Zm2.217 48.677-2.213-.553-1.188-1.915a.587.587 0 0 0-.996 0l-1.186 1.915-2.212.553a.586.586 0 0 0-.3.951l1.47 1.702-.176 2.285a.584.584 0 0 0 .81.584l2.094-.889 2.09.889c.399.17.85-.14.814-.584l-.176-2.285 1.47-1.702a.587.587 0 0 0-.301-.951Zm-2.217 2.072a.58.58 0 0 0-.141.429l.122 1.565-1.432-.607a.585.585 0 0 0-.46 0l-1.431.607.122-1.565a.58.58 0 0 0-.143-.43l-1.008-1.166 1.52-.38a.583.583 0 0 0 .355-.26L50 72.914l.815 1.313c.08.13.206.222.356.26l1.517.38-1.008 1.167Zm14.822-49.286-2.212-.554-1.188-1.914a.586.586 0 0 0-.995 0l-1.188 1.914-2.212.555a.587.587 0 0 0-.3.951l1.47 1.7-.178 2.286a.587.587 0 0 0 .814.585l2.091-.888 2.092.888a.586.586 0 0 0 .813-.585l-.177-2.285 1.47-1.7a.587.587 0 0 0-.3-.953Zm-2.216 2.071a.586.586 0 0 0-.14.429l.12 1.567-1.433-.608a.585.585 0 0 0-.457 0l-1.433.608.121-1.567a.585.585 0 0 0-.14-.429l-1.009-1.166 1.519-.38a.587.587 0 0 0 .355-.26l.816-1.313.815 1.313c.08.13.208.223.355.26l1.519.38-1.008 1.166Zm12.017 7.514-2.21-.555-1.188-1.915a.588.588 0 0 0-.997 0l-1.188 1.915-2.212.555a.585.585 0 0 0-.3.952l1.47 1.699-.176 2.285a.586.586 0 0 0 .813.586l2.09-.888 2.091.888a.585.585 0 0 0 .814-.586l-.176-2.283 1.47-1.701a.585.585 0 0 0-.301-.952Zm-2.215 2.07a.587.587 0 0 0-.143.428l.122 1.568-1.432-.607a.574.574 0 0 0-.457 0l-1.434.607.122-1.568a.595.595 0 0 0-.14-.428l-1.009-1.165 1.519-.38a.586.586 0 0 0 .354-.26l.816-1.315.815 1.315c.08.129.206.22.356.26l1.517.38-1.006 1.165Zm4.889 10.694-2.21-.556-1.188-1.914a.587.587 0 0 0-.996 0l-1.189 1.914-2.212.556a.586.586 0 0 0-.3.951l1.47 1.7-.176 2.285a.587.587 0 0 0 .813.586l2.09-.888 2.094.888a.589.589 0 0 0 .813-.586l-.178-2.285 1.472-1.7a.586.586 0 0 0-.303-.951Zm-2.215 2.07a.588.588 0 0 0-.142.428l.121 1.568-1.431-.609a.594.594 0 0 0-.457 0l-1.435.61.122-1.569a.594.594 0 0 0-.14-.428l-1.008-1.165 1.518-.382a.584.584 0 0 0 .354-.258l.816-1.315.815 1.315a.58.58 0 0 0 .357.258l1.516.382-1.006 1.164Zm-.518 10.319-2.212-.553-1.188-1.915a.585.585 0 0 0-.994 0l-1.19 1.915-2.21.553a.585.585 0 0 0-.3.952l1.469 1.701-.178 2.285a.586.586 0 0 0 .813.584l2.093-.888 2.09.888a.585.585 0 0 0 .814-.584l-.175-2.285 1.469-1.701a.587.587 0 0 0-.3-.952Zm-2.217 2.072a.584.584 0 0 0-.14.427l.121 1.568-1.434-.607a.578.578 0 0 0-.457 0l-1.432.607.122-1.568a.586.586 0 0 0-.143-.427l-1.008-1.165 1.519-.382a.583.583 0 0 0 .356-.26l.816-1.312.816 1.312c.08.131.206.223.353.26l1.519.38-1.008 1.167Zm-7.368 7.73-2.21-.556-1.189-1.912a.587.587 0 0 0-.996 0l-1.188 1.912-2.21.556a.586.586 0 0 0-.303.952l1.472 1.701-.178 2.285a.586.586 0 0 0 .813.584l2.093-.889 2.09.889a.586.586 0 0 0 .814-.584l-.176-2.285 1.47-1.701a.587.587 0 0 0-.302-.952Zm-2.215 2.072a.578.578 0 0 0-.14.429l.121 1.565-1.434-.607a.58.58 0 0 0-.457 0l-1.432.607.12-1.565a.592.592 0 0 0-.141-.43l-1.008-1.166 1.518-.38a.588.588 0 0 0 .357-.26l.815-1.313.816 1.313c.08.129.206.222.354.26l1.518.38-1.007 1.167ZM41.29 26.75l-2.21-.556-1.188-1.915a.588.588 0 0 0-.996 0l-1.188 1.915-2.21.555a.586.586 0 0 0-.302.952l1.471 1.7-.178 2.284a.589.589 0 0 0 .814.586l2.093-.888 2.09.888a.587.587 0 0 0 .813-.586l-.175-2.285 1.47-1.7a.586.586 0 0 0-.303-.95Zm-2.214 2.069a.587.587 0 0 0-.14.429l.121 1.568-1.434-.61a.594.594 0 0 0-.457 0l-1.432.61.12-1.568a.585.585 0 0 0-.141-.43l-1.008-1.164 1.518-.382a.589.589 0 0 0 .357-.258l.815-1.315.816 1.315c.08.13.206.22.354.258l1.518.382-1.007 1.165ZM25.501 41.855l2.093-.888 2.09.888a.586.586 0 0 0 .814-.586l-.176-2.283 1.47-1.701a.586.586 0 0 0-.3-.952l-2.212-.555-1.189-1.915a.587.587 0 0 0-.996 0l-1.188 1.915-2.21.555a.585.585 0 0 0-.3.952l1.47 1.701-.179 2.283a.587.587 0 0 0 .813.586Zm.92-4.997a.598.598 0 0 0 .357-.26l.816-1.315.815 1.315c.08.129.207.223.354.26l1.519.38-1.008 1.165a.587.587 0 0 0-.14.429l.122 1.568-1.435-.61a.594.594 0 0 0-.457 0l-1.432.61.12-1.568a.583.583 0 0 0-.141-.43l-1.008-1.164 1.519-.38Zm-4.23 14.89-.178 2.285a.589.589 0 0 0 .814.586l2.093-.889 2.09.889a.587.587 0 0 0 .814-.586l-.176-2.285 1.47-1.702a.585.585 0 0 0-.3-.95l-2.213-.555-1.188-1.914a.587.587 0 0 0-.996 0l-1.188 1.914-2.21.556a.583.583 0 0 0-.3.95l1.468 1.7Zm1.557-2.128a.587.587 0 0 0 .356-.258l.816-1.315.815 1.315c.08.129.206.22.354.258l1.519.382-1.008 1.164a.586.586 0 0 0-.14.43l.121 1.567-1.434-.61a.58.58 0 0 0-.457 0l-1.432.61.12-1.568a.574.574 0 0 0-.141-.429l-1.008-1.164 1.519-.383Zm7.802 11.866-2.21-.553-1.19-1.915a.585.585 0 0 0-.994 0l-1.19 1.915-2.211.553a.586.586 0 0 0-.3.952l1.47 1.701-.179 2.285c-.03.45.422.752.814.584l2.093-.888 2.09.888a.585.585 0 0 0 .814-.584l-.176-2.285 1.47-1.701a.585.585 0 0 0-.3-.952Zm-2.215 2.072a.58.58 0 0 0-.143.429l.122 1.566-1.431-.607a.58.58 0 0 0-.46 0l-1.432.607.122-1.566a.586.586 0 0 0-.143-.429l-1.008-1.167 1.519-.38a.582.582 0 0 0 .356-.26l.816-1.312.815 1.312c.08.131.207.223.354.26l1.52.38-1.007 1.167Zm11.799 7.73-2.213-.556-1.186-1.912a.588.588 0 0 0-.996 0l-1.188 1.912-2.212.556a.587.587 0 0 0-.3.951l1.47 1.702-.176 2.285a.586.586 0 0 0 .813.584l2.09-.889 2.094.889a.587.587 0 0 0 .813-.584l-.178-2.287 1.47-1.7a.585.585 0 0 0-.301-.951Zm-2.215 2.072a.57.57 0 0 0-.14.426l.119 1.568-1.432-.607a.578.578 0 0 0-.457 0l-1.434.607.122-1.568a.59.59 0 0 0-.141-.426l-1.008-1.168 1.519-.38a.577.577 0 0 0 .354-.26l.815-1.312.816 1.313a.582.582 0 0 0 .356.26l1.519.38-1.008 1.167Z"/><defs><linearGradient id="a" x1="100" x2="4.959" y1="60.744" y2="27.686" gradientUnits="userSpaceOnUse"><stop stop-color="#AF278D"/><stop offset="1" stop-color="#D48EBB"/></linearGradient></defs></svg>