<svg xmlns="http://www.w3.org/2000/svg" width="50" height="50" fill="none"><path fill="#A0007C" d="M11.605 50c.587 0 1.139-.229 1.554-.644l6.215-6.214a.733.733 0 0 0 .146-.827 3.439 3.439 0 0 0 1.592-.848c6.544-6.179 18.249-14.945 23.874-19.159 2.356-1.764 3.135-2.351 3.335-2.551l1.035-1.036c.415-.415.644-.967.644-1.554 0-.587-.229-1.139-.644-1.554l-4.328-4.328a.732.732 0 0 0-1.035 1.036l4.328 4.328a.733.733 0 0 1 0 1.036l-.518.518L31.797 2.197l.518-.518a.733.733 0 0 1 1.036 0l8.59 8.591a.733.733 0 0 0 1.037-1.035L34.387.644A2.183 2.183 0 0 0 32.833 0c-.587 0-1.139.229-1.554.644l-1.036 1.035c-.2.2-.787.979-2.552 3.335a819.716 819.716 0 0 1-5.542 7.335.733.733 0 0 0 1.163.891 821.57 821.57 0 0 0 5.552-7.348 356.18 356.18 0 0 1 1.957-2.6L46.707 19.18c-.587.45-1.546 1.168-2.599 1.957-5.647 4.23-17.397 13.03-24.001 19.266-.65.614-1.516.588-1.899.538l-9.147-9.147c-.047-.373-.076-1.25.537-1.9 3.031-3.21 7.08-8.078 12.032-14.47a.732.732 0 0 0-1.158-.896c-4.924 6.354-8.94 11.185-11.94 14.36a3.443 3.443 0 0 0-.848 1.592.733.733 0 0 0-.826.147L5.266 32.22a.733.733 0 0 0 1.036 1.036l1.074-1.075L17.82 42.624l-4.143 4.143-2.77-2.77c-.006-.7-.175-2.246-1.416-3.488-1.242-1.241-2.788-1.41-3.488-1.416l-2.77-2.77 1.018-1.018a.733.733 0 0 0-1.036-1.035L.644 36.84A2.183 2.183 0 0 0 0 38.395c0 .587.229 1.138.644 1.553l9.408 9.408c.415.415.966.644 1.553.644Zm1.036-2.197-.518.518a.727.727 0 0 1-.518.214.728.728 0 0 1-.518-.214L1.68 38.913a.727.727 0 0 1-.214-.518c0-.196.076-.38.214-.518l.518-.518 2.994 2.994a.734.734 0 0 0 .597.21c.011 0 1.55-.136 2.667.982 1.116 1.116.983 2.651.982 2.667-.024.22.053.44.21.597l2.994 2.994Z"/></svg>