<svg xmlns="http://www.w3.org/2000/svg" width="100" height="100" fill="none"><circle cx="50" cy="50" r="49" fill="url(#a)" stroke="#A0007C" stroke-width="2"/><g fill="#fff" clip-path="url(#b)"><path d="M67.96 50.224a.734.734 0 0 0-1.375.51c.742 2 1.118 3.715 1.118 5.096 0 9.762-7.942 17.703-17.703 17.703S32.297 65.592 32.297 55.83c0-3.142 1.875-7.808 5.571-13.868a.733.733 0 0 0-1.252-.764c-3.84 6.293-5.785 11.216-5.785 14.632C30.83 66.4 39.43 75 50 75s19.17-8.6 19.17-19.17c0-1.556-.407-3.442-1.21-5.606ZM38.559 39.478a.73.73 0 0 0 1.015-.212c3.116-4.76 6.513-9.167 8.814-12.027A2.06 2.06 0 0 1 50 26.467c.63 0 1.217.281 1.612.772 1.769 2.198 4.435 5.625 7.092 9.47a.733.733 0 0 0 1.206-.835c-2.681-3.88-5.371-7.337-7.155-9.554A3.52 3.52 0 0 0 50 25a3.52 3.52 0 0 0-2.755 1.32c-2.322 2.885-5.75 7.333-8.898 12.143a.733.733 0 0 0 .212 1.015Z"/><path d="M49.267 49.376v3.407a6.522 6.522 0 0 0-5.115-2.476h-5.128a1.86 1.86 0 0 0-1.858 1.858v3.976a6.54 6.54 0 0 0 6.533 6.532h5.568v6.922a.733.733 0 0 0 1.466 0v-3.412h2.364a4.677 4.677 0 0 0 4.672-4.673v-1.38c0-.721-.586-1.307-1.306-1.307h-2.524a4.65 4.65 0 0 0-3.205 1.278v-5.09h5.086c2.705 0 5.3-.998 7.307-2.808a.733.733 0 0 0-.982-1.089 9.427 9.427 0 0 1-6.325 2.43h-3.97l13.42-12.64v3.192a9.451 9.451 0 0 1-1.2 4.61.733.733 0 0 0 1.279.717 10.92 10.92 0 0 0 1.387-5.327v-4.04c0-.88-.715-1.594-1.594-1.594h-4.96c-6.018 0-10.914 4.896-10.914 10.914Zm-10.634 6.765v-3.435l4.899 4.424a.73.73 0 0 0 1.036-.052.733.733 0 0 0-.053-1.036l-4.725-4.268h4.362a5.071 5.071 0 0 1 5.066 5.066v3.45l-2.383-2.153a.733.733 0 0 0-.984 1.089l2.194 1.98h-4.346a5.072 5.072 0 0 1-5.066-5.065ZM53.94 60.29h2.364v1.22a3.209 3.209 0 0 1-3.206 3.206h-2.364v-1.221a3.209 3.209 0 0 1 3.206-3.205Zm6.242-20.361h3.983l-13.43 12.65v-3.203c0-5.21 4.238-9.447 9.447-9.447Z"/></g><defs><linearGradient id="a" x1="100" x2="4.959" y1="60.744" y2="27.686" gradientUnits="userSpaceOnUse"><stop stop-color="#AF278D"/><stop offset="1" stop-color="#D48EBB"/></linearGradient><clipPath id="b"><path fill="#fff" d="M25 25h50v50H25z"/></clipPath></defs></svg>