<svg width="80" height="80" viewBox="0 0 80 80" fill="none" xmlns="http://www.w3.org/2000/svg">
<circle cx="40" cy="40" r="39" fill="url(#paint0_linear_215_41)" stroke="#A0007C" stroke-width="2"/>
<g clip-path="url(#clip0_215_41)">
<path d="M60.5799 57.0811L55.2996 51.9428C55.0386 51.6886 54.6209 51.6944 54.3669 51.9556C54.1128 52.2167 54.1186 52.6343 54.3797 52.8883L59.6599 58.0266C59.7881 58.1514 59.9541 58.2134 60.1199 58.2134C60.2917 58.2134 60.4633 58.1467 60.5926 58.0138C60.8466 57.7528 60.841 57.3352 60.5799 57.0811Z" fill="white"/>
<path d="M51.7011 48.4407C50.9668 45.8749 48.5986 44.0877 45.9229 44.0877C44.5183 44.0877 43.1916 44.5736 42.1402 45.4255C42.1539 45.2975 42.1629 45.1681 42.1629 45.0367C42.1629 44.1732 41.5967 43.1659 40.4802 42.0425C39.7069 41.2644 38.9426 40.704 38.9104 40.6806C38.6786 40.5114 38.3643 40.5114 38.1325 40.6806C38.1004 40.7041 37.3361 41.2644 36.5627 42.0425C35.4462 43.1658 34.88 44.1732 34.88 45.0367C34.88 45.0671 34.8823 45.097 34.883 45.1272L31.6129 41.8571C31.1099 41.3541 30.4409 41.077 29.7295 41.077C29.0179 41.077 28.3491 41.3541 27.8459 41.8571C27.4993 42.2038 27.269 42.623 27.1537 43.0663L27.1306 43.0432C26.1162 42.0287 24.4657 42.0289 23.4514 43.0432C23.1164 43.3781 22.8928 43.7825 22.7791 44.2104C22.2835 43.8142 21.6731 43.5987 21.0293 43.5987C20.2787 43.5987 19.573 43.891 19.0423 44.4217C17.9466 45.5174 17.9466 47.3002 19.0405 48.3939L20.6364 50.0024C20.8931 50.2612 21.3107 50.2628 21.5693 50.0061C21.8279 49.7495 21.8296 49.3319 21.573 49.0733L19.9752 47.4629C19.3939 46.8817 19.3939 45.9359 19.9752 45.3545C20.2568 45.073 20.6311 44.9178 21.0294 44.9178C21.4276 44.9178 21.8019 45.073 22.0836 45.3546L30.2914 53.5623C30.415 53.686 30.5829 53.7555 30.7578 53.7555H41.4916C41.8559 53.7555 42.1513 53.4602 42.1513 53.0959C42.1513 52.7315 41.8559 52.4362 41.4916 52.4362H34.2366C33.2004 52.4362 32.3574 51.5933 32.3574 50.5572C32.3574 49.5209 33.2004 48.6779 34.2366 48.6779H40.4966C41.0326 48.6779 41.5226 48.3817 41.7753 47.9047C42.5917 46.364 44.181 45.4069 45.9229 45.4069C48.0256 45.4069 49.8849 46.8206 50.4444 48.8449C50.4977 49.0376 50.6005 49.2116 50.7399 49.3462L52.3578 50.9206C52.6187 51.1747 53.0364 51.1688 53.2905 50.9078C53.5446 50.6467 53.5389 50.2291 53.2778 49.9751L51.7011 48.4407ZM38.5215 42.0457C39.5906 42.9088 40.8435 44.235 40.8435 45.0367C40.8435 46.316 39.8037 47.3568 38.5248 47.3586H38.518C37.2392 47.3568 36.1993 46.3159 36.1993 45.0367C36.1994 44.2349 37.4524 42.9087 38.5215 42.0457ZM31.031 52.4363L24.3843 45.7895C23.8843 45.2895 23.8843 44.476 24.3843 43.9761C24.8844 43.4761 25.6979 43.4759 26.198 43.9761L31.3675 49.1455C31.157 49.5716 31.0382 50.0506 31.0382 50.5572C31.0382 51.2589 31.266 51.9083 31.6507 52.4362H31.031V52.4363ZM32.1895 48.1018L28.7789 44.6912C28.525 44.4373 28.3851 44.0996 28.3851 43.7405C28.3851 43.3815 28.525 43.0439 28.7789 42.7899C29.303 42.2657 30.1559 42.2655 30.6802 42.7899L35.2488 47.3586H34.2366C33.4585 47.3586 32.7446 47.6382 32.1895 48.1018Z" fill="white"/>
<path d="M46.9087 58.8001C46.7851 58.6764 46.6172 58.6069 46.4423 58.6069H32.2978C31.4938 58.6069 30.7078 58.2796 30.1415 57.7089L23.5531 51.0691C23.2966 50.8104 22.879 50.8088 22.6203 51.0654C22.3617 51.322 22.3602 51.7397 22.6167 51.9982L29.2051 58.638C30.0173 59.4567 31.1446 59.9262 32.2979 59.9262H46.1691L48.0501 61.8073C48.1789 61.936 48.3478 62.0004 48.5165 62.0004C48.6853 62.0004 48.8542 61.936 48.9829 61.8073C49.2406 61.5496 49.2406 61.132 48.9829 60.8744L46.9087 58.8001Z" fill="white"/>
<path d="M31.1971 32.5122C31.346 33.8607 32.4814 34.8777 33.8382 34.8777H35.1376V36.9406C35.1376 38.1238 36.1003 39.0863 37.2834 39.0863H39.7594C40.9427 39.0863 41.9052 38.1238 41.9052 36.9406V34.8777H43.2047C44.5614 34.8777 45.6967 33.8607 45.8457 32.5122L46.0317 30.8289C46.0717 30.4668 45.8105 30.1408 45.4485 30.1008C45.0872 30.0614 44.7604 30.3221 44.7204 30.6841L44.5345 32.3675C44.4594 33.0465 43.8878 33.5584 43.2047 33.5584H33.8382C33.1551 33.5584 32.5834 33.0465 32.5084 32.3675L31.8392 26.3086H34.0778V26.4301C34.0778 27.0369 34.5715 27.5305 35.1783 27.5305H36.391V28.7432C36.391 29.35 36.8847 29.8437 37.4915 29.8437H39.6394C40.2462 29.8437 40.7398 29.3501 40.7398 28.7432V27.5305H41.9526C42.5594 27.5305 43.053 27.037 43.053 26.4301V26.3086H45.2037L45.031 27.873C44.9909 28.2351 45.2521 28.5611 45.6142 28.6011C45.6388 28.6037 45.6631 28.6051 45.6874 28.6051C46.0193 28.6051 46.3049 28.3553 46.3422 28.0178L47.4782 17.7319C47.5182 17.3699 47.2571 17.0439 46.895 17.0039C46.5337 16.9651 46.2069 17.2252 46.1669 17.5872L45.3494 24.9893H43.053V24.2822C43.053 23.6754 42.5594 23.1817 41.9526 23.1817H40.7398V21.969C40.7398 21.3622 40.2462 20.8685 39.6394 20.8685H37.4915C36.8847 20.8685 36.391 21.3621 36.391 21.969V23.1817H35.1783C34.5715 23.1817 34.0778 23.6753 34.0778 24.2822V24.9893H31.6935L30.876 17.5872C30.8361 17.2251 30.5102 16.9648 30.1479 17.0039C29.7858 17.0439 29.5247 17.3699 29.5647 17.7319L31.1971 32.5122ZM40.586 36.9406C40.586 37.3963 40.2152 37.767 39.7595 37.767H37.2835C36.8277 37.767 36.457 37.3962 36.457 36.9406V34.8777H40.5861V36.9406H40.586ZM35.3972 24.5011H37.0507C37.415 24.5011 37.7104 24.2058 37.7104 23.8414V22.1879H39.4206V23.8414C39.4206 24.2058 39.7159 24.5011 40.0802 24.5011H41.7338V26.2113H40.0802C39.7159 26.2113 39.4206 26.5065 39.4206 26.8709V28.5245H37.7104V26.8709C37.7104 26.5065 37.415 26.2113 37.0507 26.2113H35.3972V24.5011Z" fill="white"/>
</g>
<defs>
<linearGradient id="paint0_linear_215_41" x1="80" y1="48.595" x2="3.96694" y2="22.1488" gradientUnits="userSpaceOnUse">
<stop stop-color="#AF278D"/>
<stop offset="1" stop-color="#D48EBB"/>
</linearGradient>
<clipPath id="clip0_215_41">
<rect width="45" height="45" fill="white" transform="translate(17 17)"/>
</clipPath>
</defs>
</svg>
