<svg width="100" height="100" viewBox="0 0 100 100" fill="none" xmlns="http://www.w3.org/2000/svg">
<circle cx="50" cy="50" r="49" fill="url(#paint0_linear_215_29)" stroke="#A0007C" stroke-width="2"/>
<g clip-path="url(#clip0_215_29)">
<path d="M67.9603 50.2244C67.8194 49.8446 67.3971 49.6512 67.0176 49.7918C66.6378 49.9326 66.4441 50.3547 66.5849 50.7345C67.3265 52.7343 67.7026 54.4489 67.7026 55.8304C67.7026 65.5917 59.7613 73.533 50 73.533C40.2388 73.533 32.2974 65.5917 32.2974 55.8304C32.2974 52.6878 34.1716 48.0217 37.868 41.9617C38.0788 41.6159 37.9695 41.1646 37.6237 40.9537C37.2779 40.7426 36.8267 40.852 36.6156 41.1979C32.7769 47.4913 30.8306 52.4145 30.8306 55.8304C30.8306 66.4005 39.4299 74.9998 50 74.9998C60.57 74.9998 69.1694 66.4005 69.1694 55.8304C69.1695 54.2742 68.7626 52.3882 67.9603 50.2244Z" fill="white"/>
<path d="M38.559 39.4782C38.6829 39.5593 38.8221 39.5981 38.96 39.5981C39.1991 39.5981 39.4336 39.4813 39.5743 39.2662C42.69 34.5063 46.0869 30.0985 48.3879 27.2391C48.7828 26.7483 49.3704 26.4668 50.0001 26.4668C50.6297 26.4668 51.2172 26.7483 51.6122 27.2391C53.381 29.4372 56.0471 32.8642 58.7037 36.7082C58.934 37.0414 59.3907 37.1249 59.7241 36.8946C60.0574 36.6643 60.1407 36.2076 59.9104 35.8743C57.2287 31.9939 54.539 28.5366 52.755 26.3196C52.0801 25.4809 51.0759 25 50.0001 25C48.9242 25 47.92 25.4809 47.2451 26.3196C44.9235 29.2046 41.4953 33.6533 38.347 38.4629C38.1251 38.8018 38.22 39.2564 38.559 39.4782Z" fill="white"/>
<path d="M49.2666 49.3764V52.7833C48.0689 51.2764 46.2221 50.3074 44.1521 50.3074H39.0239C37.9995 50.3074 37.1663 51.1408 37.1663 52.1651V56.1409C37.1663 59.7429 40.0967 62.6734 43.6988 62.6734H49.2666V69.5946C49.2666 69.9996 49.5949 70.328 50.0001 70.328C50.4052 70.328 50.7335 69.9996 50.7335 69.5946V66.1825H53.0973C55.6736 66.1825 57.7694 64.0866 57.7694 61.5104V60.1293C57.7694 59.4089 57.1833 58.8229 56.463 58.8229H53.9389C52.6988 58.8229 51.5708 59.3095 50.7336 60.1006V55.0104H55.8203C58.5248 55.0104 61.1197 54.0135 63.1269 52.2035C63.4277 51.9322 63.4517 51.4684 63.1804 51.1676C62.9092 50.8668 62.4453 50.843 62.1446 51.1141C60.4073 52.6808 58.1614 53.5435 55.8203 53.5435H51.8486L65.2681 40.9043V44.0957C65.2681 45.7105 64.8532 47.3045 64.0681 48.7059C63.8702 49.0592 63.9962 49.5062 64.3495 49.7041C64.7028 49.902 65.1498 49.7761 65.3478 49.4227C66.2552 47.8031 66.7349 45.961 66.7349 44.0957V40.0558C66.7349 39.1769 66.0199 38.4619 65.141 38.4619H60.1812C54.1628 38.4619 49.2666 43.3581 49.2666 49.3764ZM38.6331 56.1409V52.7061L43.5318 57.1305C43.6722 57.2573 43.8479 57.3197 44.0232 57.3197C44.2234 57.3197 44.4229 57.2381 44.5676 57.0778C44.8391 56.7772 44.8155 56.3135 44.515 56.042L39.7899 51.7744H44.152C46.9451 51.7744 49.2177 54.0468 49.2177 56.84V60.2893L46.8346 58.1371C46.534 57.8657 46.0705 57.8891 45.7987 58.1898C45.5273 58.4904 45.5509 58.9541 45.8514 59.2257L48.0448 61.2067H43.6988C40.9056 61.2065 38.6331 58.9341 38.6331 56.1409ZM53.9388 60.2897H56.3025V61.5104C56.3025 63.2778 54.8647 64.7157 53.0973 64.7157H50.7335V63.495C50.7335 61.7276 52.1714 60.2897 53.9388 60.2897ZM60.1811 39.9287H64.1644L50.7334 52.5787V49.3764C50.7335 44.1669 54.9716 39.9287 60.1811 39.9287Z" fill="white"/>
</g>
<defs>
<linearGradient id="paint0_linear_215_29" x1="100" y1="60.7438" x2="4.95867" y2="27.686" gradientUnits="userSpaceOnUse">
<stop stop-color="#AF278D"/>
<stop offset="1" stop-color="#D48EBB"/>
</linearGradient>
<clipPath id="clip0_215_29">
<rect width="50" height="50" fill="white" transform="translate(25 25)"/>
</clipPath>
</defs>
</svg>
