<svg width="100" height="100" viewBox="0 0 100 100" fill="none" xmlns="http://www.w3.org/2000/svg">
<circle cx="50" cy="50" r="49" fill="url(#paint0_linear_215_25)" stroke="#A0007C" stroke-width="2"/>
<path d="M49.1503 76.0224C47.0502 76.0224 45.3417 74.3412 45.3417 72.2747V70.4208H41.6457C39.5455 70.4208 37.8371 68.7386 37.8371 66.6708C37.8371 64.6044 39.5455 62.9232 41.6457 62.9232H45.3417V57.774C37.4775 56.0447 31.7175 49.1547 31.7175 41.0865C31.7175 27.0697 47.9925 19.1034 59.3905 27.256C59.7853 27.5384 59.8765 28.0873 59.5941 28.4822C59.3117 28.8771 58.7628 28.9681 58.368 28.6858C48.1565 21.3819 33.4753 28.4603 33.4753 41.0866C33.4753 48.6029 39.041 54.8979 46.3728 56.1865C46.793 56.2604 47.0996 56.6255 47.0996 57.0522V63.8022C47.0996 64.2876 46.706 64.6811 46.2207 64.6811H41.6457C40.5148 64.6811 39.5949 65.5737 39.5949 66.671C39.5949 67.7695 40.5148 68.6631 41.6457 68.6631H46.2207C46.706 68.6631 47.0996 69.0567 47.0996 69.542V72.2749C47.0996 73.3721 48.0195 74.2647 49.1503 74.2647C50.2798 74.2647 51.1988 73.3721 51.1988 72.2749V69.542C51.1988 69.0567 51.5923 68.6631 52.0777 68.6631H56.655C57.7846 68.6631 58.7035 67.7695 58.7035 66.671C58.7035 65.5737 57.7846 64.6811 56.655 64.6811H52.0777C51.5923 64.6811 51.1988 64.2876 51.1988 63.8022V57.0522C51.1988 56.6255 51.5052 56.2605 51.9255 56.1865C54.2644 55.7752 56.4299 54.8676 58.3617 53.4891C58.7569 53.2072 59.3057 53.2989 59.5878 53.694C59.8697 54.0891 59.778 54.6379 59.3829 54.92C57.4375 56.3083 55.2788 57.2668 52.9567 57.7745V62.9233H56.6551C58.754 62.9233 60.4614 64.6045 60.4614 66.671C60.4614 68.7387 58.754 70.421 56.6551 70.421H52.9567V72.2749C52.9566 74.3412 51.2492 76.0224 49.1503 76.0224ZM37.5746 41.0865C37.5746 32.9879 45.901 27.6412 53.3444 30.4995C53.7975 30.6735 54.0238 31.1819 53.8498 31.6351C53.6758 32.0882 53.1674 32.3145 52.7142 32.1405C46.4151 29.7215 39.3325 34.231 39.3325 41.0863C39.3325 47.9556 46.4257 52.4495 52.7142 50.0347C53.1674 49.8606 53.6758 50.0869 53.8498 50.5401C54.0238 50.9933 53.7975 51.5016 53.3444 51.6756C45.8983 54.5351 37.5746 49.1882 37.5746 41.0865Z" fill="white"/>
<path d="M62.487 50.8832C57.0857 50.8832 52.6915 46.4889 52.6915 41.0877C52.6915 35.6865 57.0858 31.2922 62.487 31.2922C67.8882 31.2922 72.2825 35.6865 72.2825 41.0877C72.2825 46.4889 67.8882 50.8832 62.487 50.8832ZM62.487 33.0499C58.055 33.0499 54.4493 36.6557 54.4493 41.0876C54.4493 45.5195 58.0551 49.1252 62.487 49.1252C66.9189 49.1252 70.5247 45.5195 70.5247 41.0876C70.5247 36.6557 66.9189 33.0499 62.487 33.0499Z" fill="white"/>
<path d="M60.2277 45.4906C59.7423 45.4906 59.3488 45.0971 59.3488 44.6117V37.5635C59.3488 37.0781 59.7423 36.6846 60.2277 36.6846C60.7131 36.6846 61.1066 37.0781 61.1066 37.5635V44.6117C61.1066 45.0971 60.7131 45.4906 60.2277 45.4906Z" fill="white"/>
<path d="M64.7461 45.4906C64.2607 45.4906 63.8672 45.0971 63.8672 44.6117V37.5635C63.8672 37.0781 64.2607 36.6846 64.7461 36.6846C65.2315 36.6846 65.625 37.0781 65.625 37.5635V44.6117C65.625 45.0971 65.2315 45.4906 64.7461 45.4906Z" fill="white"/>
<defs>
<linearGradient id="paint0_linear_215_25" x1="100" y1="60.7438" x2="4.95867" y2="27.686" gradientUnits="userSpaceOnUse">
<stop stop-color="#AF278D"/>
<stop offset="1" stop-color="#D48EBB"/>
</linearGradient>
</defs>
</svg>
