<svg width="100" height="100" viewBox="0 0 100 100" fill="none" xmlns="http://www.w3.org/2000/svg">
<circle cx="50" cy="50" r="49" fill="url(#paint0_linear_215_21)" stroke="#A0007C" stroke-width="2"/>
<g clip-path="url(#clip0_215_21)">
<path d="M77.5823 38.1821C77.3039 37.5329 76.7867 37.0334 76.1264 36.7759C75.4607 36.5164 74.7355 36.5345 74.0836 36.8268C72.78 37.4117 72.1788 38.9614 72.7435 40.2814C74.0281 43.2833 74.6948 46.4742 74.7253 49.7655C74.851 63.3065 63.9446 74.5026 50.4131 74.7233C41.6762 74.865 33.6897 70.5312 29.0424 63.1285C28.7844 62.7174 28.2416 62.5936 27.8308 62.8515C27.4196 63.1096 27.2956 63.6521 27.5538 64.0632C29.9327 67.8526 33.2561 71.0023 37.1647 73.1718C41.2014 75.4126 45.7929 76.5575 50.4418 76.481C64.9358 76.2446 76.6177 64.2528 76.4832 49.7493C76.4505 46.2246 75.7361 42.8064 74.3598 39.59C74.1665 39.1382 74.3613 38.6291 74.8032 38.4308C75.0216 38.3327 75.2647 38.3267 75.4876 38.4137C75.7054 38.4986 75.8757 38.6626 75.9669 38.8753C77.4607 42.3573 78.2261 46.0599 78.242 49.8804C78.2734 57.4284 75.3447 64.5433 69.9958 69.9145C64.6476 75.2846 57.5464 78.2423 49.9999 78.2422C34.4271 78.2422 21.7578 65.5727 21.7578 50C21.7578 34.4272 34.4272 21.7578 50 21.7578C52.3271 21.7578 54.6409 22.0415 56.8766 22.601C57.3471 22.7189 57.8246 22.4327 57.9425 21.9617C58.0604 21.4907 57.7741 21.0136 57.3032 20.8958C54.9281 20.3014 52.4709 20 50 20C41.9867 20 34.4531 23.1206 28.7867 28.7867C23.1206 34.4531 20 41.9867 20 50C20 58.0133 23.1206 65.5469 28.7867 71.2132C34.4529 76.8794 41.9866 80 49.9999 80H50C58.0168 80 65.5613 76.8583 71.2414 71.1547C76.9225 65.4498 80.033 57.8918 79.9998 49.8729C79.9829 45.8154 79.1696 41.882 77.5823 38.1821Z" fill="white"/>
<path d="M60.68 23.8477C63.0276 24.8077 65.2397 26.0841 67.2547 27.6416C67.6184 27.9229 68.1376 27.8762 68.4453 27.5343L69.5202 26.3406C69.7179 26.1211 69.9596 26.1592 70.0542 26.1856C70.1489 26.212 70.375 26.305 70.4302 26.595L71.3663 31.5188C71.4304 31.8561 71.3315 32.2099 71.1017 32.4652C70.872 32.7203 70.5307 32.8558 70.1884 32.8272L65.1936 32.4108C64.8995 32.3863 64.7834 32.171 64.7471 32.0796C64.7109 31.9882 64.6479 31.7519 64.8454 31.5325L66.086 30.1547C66.2507 29.9718 66.3311 29.7281 66.3078 29.4832C66.2845 29.2383 66.1595 29.0142 65.9632 28.8656C61.3966 25.4076 55.7939 23.5043 50.0021 23.5159C35.5987 23.5159 23.7549 35.1195 23.5194 49.5584C23.459 53.2633 24.1487 56.8581 25.5695 60.2428C25.7107 60.5793 26.0368 60.7818 26.3802 60.7818C26.4936 60.7818 26.6088 60.7597 26.7199 60.7131C27.1674 60.5252 27.378 60.0101 27.1903 59.5625C25.8643 56.4035 25.2205 53.0473 25.277 49.5871C25.4967 36.1058 36.5534 25.2736 50.0023 25.2736C54.9877 25.2618 60.0299 26.816 64.1268 29.7034L63.539 30.356C62.9541 31.0057 62.7908 31.9143 63.1129 32.727C63.435 33.5397 64.1763 34.0896 65.0475 34.1623L70.0422 34.5786C70.9286 34.6525 71.8129 34.302 72.408 33.6411C73.0031 32.9802 73.2593 32.064 73.0932 31.1903L72.1571 26.2664C71.9938 25.4076 71.3693 24.7279 70.5274 24.4924C69.6859 24.257 68.799 24.5145 68.214 25.1642L67.6773 25.7602C65.7151 24.3267 63.5885 23.1376 61.3455 22.2204C60.8961 22.0367 60.3832 22.252 60.1993 22.7012C60.0154 23.1508 60.2307 23.6639 60.68 23.8477Z" fill="white"/>
<path d="M38.7278 43.3672C38.5504 42.9359 38.1348 42.6575 37.6686 42.6575C37.6682 42.6575 37.6678 42.6575 37.6674 42.6575C37.2008 42.6579 36.7851 42.9374 36.6084 43.3693C36.6058 43.3758 36.6031 43.3825 36.6007 43.3891L32.1866 54.9788C32.0137 55.4324 32.2415 55.9402 32.6952 56.1129C33.1482 56.2857 33.6564 56.058 33.8293 55.6045L34.7131 53.284H40.5921L41.4668 55.6019C41.5995 55.9538 41.934 56.1707 42.2892 56.1707C42.3923 56.1707 42.4972 56.1524 42.5994 56.1139C43.0535 55.9425 43.2827 55.4354 43.1112 54.9813L38.7373 43.3909C38.7342 43.3831 38.731 43.375 38.7278 43.3672ZM35.3824 51.5263L37.6659 45.5308L39.9286 51.5263H35.3824Z" fill="white"/>
<path d="M65.8203 44.4153C66.3058 44.4153 66.6992 44.0218 66.6992 43.5364C66.6992 43.051 66.3058 42.6575 65.8203 42.6575H60.867C60.3815 42.6575 59.9881 43.051 59.9881 43.5364V55.2917C59.9881 55.7771 60.3815 56.1706 60.867 56.1706H65.8203C66.3058 56.1706 66.6992 55.7771 66.6992 55.2917C66.6992 54.8063 66.3058 54.4128 65.8203 54.4128H61.7459V50.2929H65.455C65.9406 50.2929 66.3339 49.8994 66.3339 49.414C66.3339 48.9286 65.9406 48.5351 65.455 48.5351H61.7459V44.4153H65.8203Z" fill="white"/>
<path d="M51.198 44.4153C52.1997 44.4153 53.1659 44.7104 53.9923 45.2685C54.3946 45.5403 54.941 45.4345 55.2126 45.0322C55.4842 44.6299 55.3785 44.0835 54.9762 43.8119C53.8582 43.0566 52.5517 42.6575 51.198 42.6575C47.4724 42.6575 44.4414 45.6884 44.4414 49.414C44.4414 53.1397 47.4724 56.1706 51.198 56.1706C54.7028 56.1706 57.1508 53.3922 57.1508 49.414C57.1508 48.9286 56.7574 48.5351 56.2719 48.5351H52.7553C52.2698 48.5351 51.8764 48.9286 51.8764 49.414C51.8764 49.8994 52.2698 50.2929 52.7553 50.2929H55.3394C55.0863 52.3525 53.9063 54.4128 51.198 54.4128C48.4416 54.4128 46.1992 52.1703 46.1992 49.414C46.1992 46.6578 48.4416 44.4153 51.198 44.4153Z" fill="white"/>
</g>
<defs>
<linearGradient id="paint0_linear_215_21" x1="100" y1="60.7438" x2="4.95867" y2="27.686" gradientUnits="userSpaceOnUse">
<stop stop-color="#AF278D"/>
<stop offset="1" stop-color="#D48EBB"/>
</linearGradient>
<clipPath id="clip0_215_21">
<rect width="60" height="60" fill="white" transform="translate(20 20)"/>
</clipPath>
</defs>
</svg>
