<svg width="100" height="100" viewBox="0 0 100 100" fill="none" xmlns="http://www.w3.org/2000/svg">
<circle cx="50" cy="50" r="49" fill="url(#paint0_linear_320_2)" stroke="#A0007C" stroke-width="2"/>
<path d="M72.4811 26.5189C66.3425 20.3806 58.1811 17 49.5 17C40.8189 17 32.6575 20.3806 26.5189 26.5189C20.3806 32.6575 17 40.8189 17 49.5C17 58.1811 20.3806 66.3425 26.5189 72.4811C32.6575 78.6194 40.8189 82 49.5 82C58.1811 82 66.3425 78.6194 72.4811 72.4811C78.6194 66.3425 82 58.1811 82 49.5C82 40.8189 78.6194 32.6575 72.4811 26.5189ZM71.1345 71.1345C65.3557 76.9132 57.6725 80.0957 49.5 80.0957C41.3275 80.0957 33.6443 76.9132 27.8655 71.1345C22.0868 65.3557 18.9043 57.6725 18.9043 49.5C18.9043 41.3275 22.0868 33.6443 27.8655 27.8655C33.6443 22.0868 41.3275 18.9043 49.5 18.9043C57.6725 18.9043 65.3557 22.0868 71.1345 27.8655C76.9132 33.6443 80.0957 41.3275 80.0957 49.5C80.0957 57.6725 76.9132 65.3557 71.1345 71.1345Z" fill="white"/>
<path d="M49.5 27.1768C48.9742 27.1768 48.5479 27.6031 48.5479 28.1289V32.1995C48.5479 32.7254 48.9742 33.1517 49.5 33.1517C50.0258 33.1517 50.4521 32.7255 50.4521 32.1997V28.1289C50.4521 27.6031 50.0258 27.1768 49.5 27.1768Z" fill="white"/>
<path d="M49.5 65.8481C48.9742 65.8481 48.5479 66.2745 48.5479 66.8003V70.8709C48.5479 71.3968 48.9742 71.8231 49.5 71.8231C50.0258 71.8231 50.4521 71.3968 50.4521 70.8709V66.8003C50.4521 66.2745 50.0258 65.8481 49.5 65.8481Z" fill="white"/>
<path d="M70.8712 48.5479H66.8005C66.2747 48.5479 65.8484 48.9742 65.8484 49.5C65.8484 50.0258 66.2747 50.4521 66.8005 50.4521H70.8712C71.397 50.4521 71.8233 50.0258 71.8233 49.5C71.8233 48.9742 71.397 48.5479 70.8712 48.5479Z" fill="white"/>
<path d="M32.1994 48.5479H28.1288C27.6029 48.5479 27.1766 48.9742 27.1766 49.5C27.1766 50.0258 27.6029 50.4521 28.1288 50.4521H32.1994C32.7252 50.4521 33.1516 50.0258 33.1516 49.5C33.1516 48.9742 32.7252 48.5479 32.1994 48.5479Z" fill="white"/>
<path d="M33.2309 39.0077L31.4683 37.9901C31.0128 37.727 30.4306 37.8832 30.1676 38.3386C29.9047 38.7939 30.0607 39.3763 30.5161 39.6392L32.2787 40.6569C32.4287 40.7434 32.5924 40.7846 32.7539 40.7846C33.083 40.7846 33.403 40.6137 33.5794 40.3084C33.8423 39.853 33.6863 39.2707 33.2309 39.0077Z" fill="white"/>
<path d="M68.4839 59.3608L66.7213 58.3431C66.2659 58.0801 65.6836 58.2362 65.4207 58.6916C65.1578 59.147 65.3138 59.7293 65.7692 59.9922L67.5318 61.0099C67.6817 61.0965 67.8455 61.1376 68.007 61.1376C68.336 61.1376 68.6561 60.9667 68.8324 60.6614C69.0953 60.206 68.9393 59.6237 68.4839 59.3608Z" fill="white"/>
<path d="M60.6616 30.1678C60.2062 29.9048 59.6239 30.0609 59.3609 30.5163L58.3433 32.2789C58.0804 32.7343 58.2364 33.3166 58.6918 33.5796C58.8417 33.6661 59.0055 33.7073 59.167 33.7073C59.496 33.7073 59.8161 33.5364 59.9924 33.2311L61.0101 31.4684C61.273 31.0131 61.117 30.4307 60.6616 30.1678Z" fill="white"/>
<path d="M40.3082 65.4207C39.8527 65.1577 39.2704 65.3138 39.0076 65.7692L37.9899 67.5319C37.727 67.9872 37.883 68.5696 38.3384 68.8325C38.4883 68.9191 38.6521 68.9602 38.8136 68.9602C39.1426 68.9602 39.4627 68.7893 39.639 68.484L40.6567 66.7214C40.9196 66.266 40.7636 65.6837 40.3082 65.4207Z" fill="white"/>
<path d="M68.8325 38.3385C68.5696 37.8831 67.9872 37.7271 67.5319 37.99L65.7693 39.0077C65.3139 39.2706 65.1579 39.8529 65.4208 40.3083C65.5971 40.6138 65.9172 40.7845 66.2463 40.7845C66.4077 40.7845 66.5715 40.7434 66.7214 40.6568L68.4841 39.6391C68.9394 39.3762 69.0955 38.7939 68.8325 38.3385Z" fill="white"/>
<path d="M33.5794 58.6916C33.3164 58.2361 32.7341 58.0801 32.2787 58.3431L30.5161 59.3608C30.0607 59.6237 29.9047 60.2061 30.1676 60.6614C30.344 60.9669 30.664 61.1376 30.9931 61.1376C31.1546 61.1376 31.3183 61.0965 31.4683 61.0099L33.2309 59.9923C33.6863 59.7295 33.8423 59.1471 33.5794 58.6916Z" fill="white"/>
<path d="M40.6567 32.2785L39.639 30.5158C39.3761 30.0603 38.7938 29.9043 38.3384 30.1674C37.883 30.4303 37.727 31.0126 37.9899 31.468L39.0076 33.2306C39.1839 33.5361 39.504 33.7068 39.833 33.7068C39.9945 33.7068 40.1583 33.6657 40.3082 33.5791C40.7636 33.3162 40.9196 32.7338 40.6567 32.2785Z" fill="white"/>
<path d="M61.0101 67.5319L59.9924 65.7692C59.7296 65.3138 59.1472 65.1577 58.6918 65.4207C58.2364 65.6837 58.0804 66.266 58.3433 66.7214L59.3609 68.484C59.5373 68.7895 59.8573 68.9602 60.1864 68.9602C60.3479 68.9602 60.5116 68.9191 60.6616 68.8325C61.117 68.5696 61.273 67.9872 61.0101 67.5319Z" fill="white"/>
<path d="M63.6708 47.3199C63.591 46.8003 63.1057 46.4437 62.585 46.5236L52.1529 48.1286C51.6551 47.1696 50.6532 46.5126 49.5002 46.5126C49.0232 46.5126 48.5723 46.6256 48.1719 46.8253L37.9614 36.6148C37.5896 36.243 36.9867 36.243 36.6149 36.6148C36.2431 36.9867 36.2431 37.5896 36.6149 37.9613L46.8254 48.1717C46.6257 48.5722 46.5127 49.0231 46.5127 49.5001C46.5127 51.1474 47.853 52.4875 49.5002 52.4875C50.9733 52.4875 52.2001 51.4154 52.4431 50.0107L62.8747 48.4058C63.3943 48.3257 63.7508 47.8396 63.6708 47.3199ZM49.5001 50.5832C48.9027 50.5832 48.4169 50.0972 48.4169 49.5001C48.4169 48.9029 48.9029 48.4169 49.5001 48.4169C50.0972 48.4169 50.5832 48.9029 50.5832 49.5001C50.5832 50.0972 50.0974 50.5832 49.5001 50.5832Z" fill="white"/>
<path d="M66.6064 29.409C61.5715 25.1134 55.1448 22.8822 48.5096 23.1282C41.8374 23.3749 35.5609 26.1127 30.8367 30.8368C26.1126 35.561 23.3748 41.8374 23.1282 48.5097C22.8828 55.1447 25.1133 61.5717 29.4089 66.6065C29.5972 66.8273 29.8645 66.9407 30.1337 66.9407C30.3523 66.9407 30.5719 66.8659 30.7512 66.7129C31.1512 66.3716 31.1988 65.7706 30.8576 65.3706C26.8726 60.6998 24.8033 54.7369 25.0311 48.5801C25.26 42.3897 27.8 36.5666 32.1832 32.1833C36.5664 27.8 42.3896 25.26 48.58 25.0311C54.7372 24.8035 60.6997 26.8727 65.3705 30.8577C65.7704 31.1989 66.3716 31.1513 66.7128 30.7513C67.0541 30.3512 67.0065 29.7502 66.6064 29.409Z" fill="white"/>
<path d="M69.5912 32.3938C69.25 31.9938 68.649 31.946 68.249 32.2874C67.8489 32.6287 67.8013 33.2296 68.1426 33.6297C72.1275 38.3005 74.1967 44.2635 73.9691 50.4202C73.7402 56.6106 71.2001 62.4337 66.8169 66.817C62.4337 71.2003 56.6105 73.7403 50.4202 73.9692C44.264 74.1971 38.3005 72.1277 33.6296 68.1427C33.2297 67.8014 32.6286 67.849 32.2874 68.249C31.9461 68.6491 31.9937 69.2501 32.3937 69.5913C37.1782 73.6732 43.2194 75.8904 49.5019 75.8904C49.8307 75.8904 50.1606 75.8843 50.4906 75.8721C57.1629 75.6254 63.4393 72.8877 68.1635 68.1635C72.8877 63.4393 75.6254 57.1629 75.8721 50.4906C76.1174 43.8558 73.8868 37.4288 69.5912 32.3938Z" fill="white"/>
<defs>
<linearGradient id="paint0_linear_320_2" x1="100" y1="60.7438" x2="4.95867" y2="27.686" gradientUnits="userSpaceOnUse">
<stop stop-color="#AF278D"/>
<stop offset="1" stop-color="#D48EBB"/>
</linearGradient>
</defs>
</svg>
