<svg width="50" height="50" viewBox="0 0 50 50" fill="none" xmlns="http://www.w3.org/2000/svg">
<path d="M34.1794 18.3588C33.2433 18.3588 32.3123 18.4426 31.3974 18.6049C31.558 17.6947 31.6406 16.7639 31.6405 15.8203C31.6404 11.5942 29.9949 7.62139 27.0073 4.63369C24.0192 1.64551 20.0463 -9.76519e-05 15.8203 4.34621e-09C11.5945 4.34621e-09 7.62168 1.6457 4.63369 4.63369C1.6458 7.62168 9.76606e-05 11.5944 4.34595e-09 15.8202C-9.76519e-05 20.0462 1.64561 24.0192 4.63369 27.0074C7.62139 29.995 11.5942 31.6405 15.8203 31.6406C15.8205 31.6406 15.8204 31.6406 15.8207 31.6406C20.0466 31.6406 24.0197 29.9951 27.0074 27.0074C28.8036 25.2112 30.1139 23.0588 30.8739 20.7097C31.9505 20.4466 33.0604 20.312 34.1795 20.312C41.8261 20.312 48.047 26.533 48.047 34.1795C48.047 41.4977 42.3486 47.5093 35.1561 48.0121V27.832C35.1561 27.2927 34.7188 26.8555 34.1795 26.8555C33.6402 26.8555 33.2029 27.2927 33.2029 27.832V48.012C26.0103 47.5092 20.312 41.4977 20.312 34.1794C20.312 33.64 19.8747 33.2028 19.3354 33.2028C18.7962 33.2028 18.3589 33.64 18.3589 34.1794C18.3589 42.9029 25.456 50 34.1795 50C42.903 50 50 42.9029 50 34.1795C50 25.4559 42.9029 18.3588 34.1794 18.3588ZM25.6263 25.6264C23.0074 28.2452 19.5249 29.6875 15.8203 29.6875C12.1158 29.6874 8.63359 28.2451 6.01484 25.6264C3.39551 23.007 1.95303 19.5245 1.95312 15.8203C1.95322 12.4437 3.15234 9.25166 5.34844 6.72959L21.9722 23.3533C22.1629 23.544 22.4128 23.6394 22.6627 23.6394C22.9126 23.6394 23.1625 23.544 23.3532 23.3533C23.7346 22.972 23.7346 22.3536 23.3532 21.9723L6.72959 5.34844C9.25176 3.15234 12.4438 1.95312 15.8203 1.95312C19.5246 1.95303 23.007 3.39551 25.6263 6.01475C28.2452 8.63359 29.6874 12.1159 29.6875 15.8203C29.6876 19.5249 28.2453 23.0073 25.6263 25.6264Z" fill="#A0007C"/>
<path d="M34.87 23.2354C34.6885 23.0537 34.4365 22.9492 34.1797 22.9492C33.9218 22.9492 33.6709 23.0537 33.4893 23.2354C33.3066 23.417 33.2031 23.6689 33.2031 23.9258C33.2031 24.1826 33.3066 24.4346 33.4893 24.6162C33.6709 24.7979 33.9219 24.9023 34.1797 24.9023C34.4365 24.9023 34.6885 24.7979 34.87 24.6162C35.0517 24.4346 35.1562 24.1826 35.1562 23.9258C35.1562 23.6689 35.0518 23.417 34.87 23.2354Z" fill="#A0007C"/>
<path d="M24.3706 7.2705C21.9843 4.88407 18.6812 3.59696 15.3068 3.73974C14.768 3.76249 14.3496 4.21786 14.3725 4.75673C14.3953 5.2956 14.8488 5.71366 15.3895 5.6912C18.2167 5.57206 20.9886 6.65058 22.9895 8.65155C23.1803 8.84228 23.4302 8.93759 23.6801 8.93759C23.93 8.93759 24.1799 8.84218 24.3706 8.65155C24.752 8.27021 24.752 7.65185 24.3706 7.2705Z" fill="#A0007C"/>
</svg>
