<svg width="50" height="50" viewBox="0 0 50 50" fill="none" xmlns="http://www.w3.org/2000/svg">
<path d="M11.6053 50C12.1923 50 12.744 49.7714 13.159 49.3563L19.3738 43.1416C19.5974 42.918 19.6462 42.5858 19.5202 42.3148C20.0446 42.191 20.6102 41.9415 21.1123 41.4673C27.6555 35.288 39.3608 26.5215 44.986 22.3084C47.342 20.544 48.1205 19.9567 48.3206 19.7566L49.3564 18.7209C49.7714 18.3059 50 17.7541 50 17.1671C50 16.5802 49.7714 16.0284 49.3564 15.6134L45.0284 11.2854C44.7423 10.9994 44.2786 10.9994 43.9926 11.2854C43.7065 11.5715 43.7065 12.0352 43.9926 12.3212L48.3206 16.6492C48.6062 16.9348 48.6062 17.3995 48.3206 17.685L47.8027 18.2029L31.7971 2.19727L32.315 1.67939C32.6006 1.39365 33.0653 1.39355 33.3508 1.67939L41.9418 10.2704C42.2279 10.5563 42.6916 10.5563 42.9776 10.2704C43.2637 9.98428 43.2637 9.52061 42.9776 9.23457L34.3866 0.643555C33.9716 0.228613 33.4198 0 32.8329 0C32.2459 0 31.6941 0.228613 31.2791 0.643555L30.2434 1.6793C30.0433 1.87949 29.456 2.65791 27.6914 5.01396C26.271 6.91055 24.3257 9.50801 22.1489 12.3492C21.9029 12.6703 21.9638 13.1301 22.285 13.3762C22.6063 13.6221 23.0658 13.5611 23.3119 13.2401C25.4934 10.3926 27.4414 7.79141 28.8638 5.89219C29.6522 4.83945 30.3703 3.88066 30.8209 3.29277L46.7073 19.1792C46.1203 19.6289 45.1611 20.3473 44.108 21.136C38.461 25.3653 26.7105 34.1656 20.1065 40.4023C19.4565 41.0162 18.5912 40.9896 18.208 40.94L9.06075 31.7928C9.01416 31.4199 8.98535 30.5421 9.59776 29.8936C12.6292 26.6837 16.6773 21.8152 21.6298 15.4237C21.8775 15.104 21.8191 14.6439 21.4994 14.3962C21.1798 14.1485 20.7197 14.2069 20.4719 14.5266C15.5485 20.8806 11.5316 25.7124 8.53271 28.8879C8.05791 29.3907 7.80762 29.9555 7.68369 30.4792C7.41309 30.3541 7.08174 30.4032 6.85849 30.6264L5.26602 32.2188C4.97998 32.505 4.97998 32.9687 5.26602 33.2547C5.55215 33.5405 6.01582 33.5407 6.30186 33.2547L7.37637 32.1801L17.8201 42.6237L13.6769 46.767L10.9071 43.9973C10.901 43.297 10.7324 41.7509 9.49072 40.5093C8.24932 39.2678 6.70312 39.0991 6.00283 39.093L3.2331 36.3232L4.25108 35.3054C4.53711 35.0192 4.53711 34.5556 4.25108 34.2695C3.96484 33.9835 3.50117 33.9837 3.21524 34.2695L0.643654 36.8411C0.22871 37.2561 9.91821e-05 37.8078 9.91821e-05 38.3948C9.91821e-05 38.9818 0.22871 39.5335 0.643749 39.9485L10.0517 49.3565C10.4666 49.7714 11.0183 50 11.6053 50ZM12.641 47.8027L12.123 48.3206C11.9848 48.459 11.8008 48.5352 11.6052 48.5352C11.4096 48.5352 11.2256 48.459 11.0873 48.3207L1.6793 38.9126C1.54092 38.7743 1.46474 38.5903 1.46474 38.3947C1.46474 38.1991 1.54092 38.0151 1.6792 37.8769L2.19717 37.3589L5.19112 40.3529C5.34805 40.5097 5.56738 40.5867 5.78809 40.5631C5.79922 40.5624 7.3373 40.4274 8.45478 41.5449C9.57051 42.6606 9.43828 44.1964 9.43672 44.2117C9.41279 44.4323 9.49004 44.6519 9.64687 44.8087L12.641 47.8027Z" fill="#A0007C"/>
</svg>
