<svg width="100" height="100" viewBox="0 0 100 100" fill="none" xmlns="http://www.w3.org/2000/svg">
<circle cx="50" cy="50" r="49" fill="url(#paint0_linear_215_31)" stroke="#A0007C" stroke-width="2"/>
<g clip-path="url(#clip0_215_31)">
<path d="M71.6667 35.9168V28.3335C71.6667 26.9528 70.5474 25.8335 69.1667 25.8335H34.1667C30.9465 25.8372 28.337 28.4467 28.3333 31.6668V47.0177C26.3333 47.6993 25 48.6843 25 50.0002V70.0002C25 72.8635 31.2642 74.1668 37.0833 74.1668C42.9025 74.1668 49.1667 72.8635 49.1667 70.0002V69.1668H70.8333C73.1334 69.1641 74.9972 67.3002 75 65.0002V40.0002C74.9975 38.0209 73.6053 36.3155 71.6667 35.9168ZM34.1667 27.5002H69.1667C69.6269 27.5002 70 27.8733 70 28.3335V30.8335H32.5C32.0398 30.8335 31.6667 31.2066 31.6667 31.6668C31.6667 32.1271 32.0398 32.5002 32.5 32.5002H70V35.8335H34.1667C31.8655 35.8335 30 33.968 30 31.6668C30 29.3656 31.8655 27.5002 34.1667 27.5002ZM37.0833 47.5002C43.9558 47.5002 47.5 49.2502 47.5 50.0002C47.5 50.7502 43.9558 52.5002 37.0833 52.5002C30.2108 52.5002 26.6667 50.7502 26.6667 50.0002C26.6667 49.2502 30.2108 47.5002 37.0833 47.5002ZM47.5 55.0002C47.5 55.7502 43.9558 57.5002 37.0833 57.5002C30.2108 57.5002 26.6667 55.7502 26.6667 55.0002V52.2502C28.9167 53.556 33.1025 54.1668 37.0833 54.1668C41.0642 54.1668 45.25 53.556 47.5 52.2502V55.0002ZM37.0833 59.1668C41.0642 59.1668 45.25 58.556 47.5 57.2502V60.0002C47.5 60.7502 43.9558 62.5002 37.0833 62.5002C30.2108 62.5002 26.6667 60.7502 26.6667 60.0002V57.2502C28.9167 58.556 33.1025 59.1668 37.0833 59.1668ZM26.6667 62.2543C28.9167 63.556 33.1025 64.1668 37.0833 64.1668C41.0642 64.1668 45.25 63.556 47.5 62.2502V65.0002C47.5 65.7502 43.9558 67.5002 37.0833 67.5002C30.2108 67.5002 26.6667 65.7502 26.6667 65.0002V62.2543ZM47.5 70.0002C47.5 70.7502 43.9558 72.5002 37.0833 72.5002C30.2108 72.5002 26.6667 70.7502 26.6667 70.0002V67.2502C28.9167 68.556 33.1025 69.1668 37.0833 69.1668C41.0642 69.1668 45.25 68.556 47.5 67.2502V70.0002ZM70.8333 67.5002H49.1667V50.0002C49.1667 47.1368 42.9025 45.8335 37.0833 45.8335C34.7033 45.8156 32.3283 46.0556 30 46.5493V35.7418C31.0947 36.8662 32.5974 37.5004 34.1667 37.5002H70.8333C72.214 37.5002 73.3333 38.6195 73.3333 40.0002V48.3335H69.1667C66.8655 48.3335 65 50.199 65 52.5002C65 54.8013 66.8655 56.6668 69.1667 56.6668H73.3333V65.0002C73.3333 65.6632 73.0699 66.2991 72.6011 66.7679C72.1322 67.2368 71.4964 67.5002 70.8333 67.5002ZM73.3333 55.0002H69.1667C67.7859 55.0002 66.6667 53.8809 66.6667 52.5002C66.6667 51.1194 67.7859 50.0002 69.1667 50.0002H73.3333V55.0002Z" fill="white"/>
<path d="M69.1667 53.3337C69.6269 53.3337 70 52.9606 70 52.5003C70 52.0401 69.6269 51.667 69.1667 51.667C68.7064 51.667 68.3333 52.0401 68.3333 52.5003C68.3333 52.9606 68.7064 53.3337 69.1667 53.3337Z" fill="white"/>
<path d="M55 39.167H53.3333C52.8731 39.167 52.5 39.5401 52.5 40.0003C52.5 40.4606 52.8731 40.8337 53.3333 40.8337H55C55.4602 40.8337 55.8333 40.4606 55.8333 40.0003C55.8333 39.5401 55.4602 39.167 55 39.167Z" fill="white"/>
<path d="M71.6667 40.0003C71.6667 39.5401 71.2936 39.167 70.8333 39.167H58.3333C57.8731 39.167 57.5 39.5401 57.5 40.0003C57.5 40.4606 57.8731 40.8337 58.3333 40.8337H70.8333C71.2936 40.8337 71.6667 40.4606 71.6667 40.0003Z" fill="white"/>
</g>
<defs>
<linearGradient id="paint0_linear_215_31" x1="100" y1="60.7438" x2="4.95867" y2="27.686" gradientUnits="userSpaceOnUse">
<stop stop-color="#AF278D"/>
<stop offset="1" stop-color="#D48EBB"/>
</linearGradient>
<clipPath id="clip0_215_31">
<rect width="50" height="50" fill="white" transform="translate(25 25)"/>
</clipPath>
</defs>
</svg>
